<!--
  - Copyright (c) 2023 - All rights reserved.
  - Created by Curtis Poon for PROCTECH 4IT3/SEP 6IT3.
  - SoA Notice: I Curtis Poon, 400263978 certify that this material is my original work.
  - I certify that no other person's work has been used without due acknowledgement.
  - I have also not made my work available to anyone else without their due acknowledgement.
  -->

<svg xmlns="http://www.w3.org/2000/svg" width="16" height="16" fill="currentColor" class="bi bi-align-center" viewBox="0 0 16 16">
  <path d="M8 1a.5.5 0 0 1 .5.5V6h-1V1.5A.5.5 0 0 1 8 1zm0 14a.5.5 0 0 1-.5-.5V10h1v4.5a.5.5 0 0 1-.5.5zM2 7a1 1 0 0 1 1-1h10a1 1 0 0 1 1 1v2a1 1 0 0 1-1 1H3a1 1 0 0 1-1-1V7z"/>
</svg>