<!--
  - Copyright (c) 2023 - All rights reserved.
  - Created by Curtis Poon for PROCTECH 4IT3/SEP 6IT3.
  - SoA Notice: I Curtis Poon, 400263978 certify that this material is my original work.
  - I certify that no other person's work has been used without due acknowledgement.
  - I have also not made my work available to anyone else without their due acknowledgement.
  -->

<svg xmlns="http://www.w3.org/2000/svg" width="16" height="16" fill="currentColor" class="bi bi-android" viewBox="0 0 16 16">
  <path d="M2.76 3.061a.5.5 0 0 1 .679.2l1.283 2.352A8.94 8.94 0 0 1 8 5a8.94 8.94 0 0 1 3.278.613l1.283-2.352a.5.5 0 1 1 .878.478l-1.252 2.295C14.475 7.266 16 9.477 16 12H0c0-2.523 1.525-4.734 3.813-5.966L2.56 3.74a.5.5 0 0 1 .2-.678ZM5 10a1 1 0 1 0 0-2 1 1 0 0 0 0 2Zm6 0a1 1 0 1 0 0-2 1 1 0 0 0 0 2Z"/>
</svg>