<!--
  - Copyright (c) 2023 - All rights reserved.
  - Created by Curtis Poon for PROCTECH 4IT3/SEP 6IT3.
  - SoA Notice: I Curtis Poon, 400263978 certify that this material is my original work.
  - I certify that no other person's work has been used without due acknowledgement.
  - I have also not made my work available to anyone else without their due acknowledgement.
  -->

<svg xmlns="http://www.w3.org/2000/svg" width="16" height="16" fill="currentColor" class="bi bi-arrow-up-left-circle" viewBox="0 0 16 16">
  <path fill-rule="evenodd" d="M1 8a7 7 0 1 0 14 0A7 7 0 0 0 1 8zm15 0A8 8 0 1 1 0 8a8 8 0 0 1 16 0zm-5.904 2.803a.5.5 0 1 0 .707-.707L6.707 6h2.768a.5.5 0 1 0 0-1H5.5a.5.5 0 0 0-.5.5v3.975a.5.5 0 0 0 1 0V6.707l4.096 4.096z"/>
</svg>