<!--
  - Copyright (c) 2023 - All rights reserved.
  - Created by Curtis Poon for PROCTECH 4IT3/SEP 6IT3.
  - SoA Notice: I Curtis Poon, 400263978 certify that this material is my original work.
  - I certify that no other person's work has been used without due acknowledgement.
  - I have also not made my work available to anyone else without their due acknowledgement.
  -->

<svg xmlns="http://www.w3.org/2000/svg" width="16" height="16" fill="currentColor" class="bi bi-arrow-up-right-square-fill" viewBox="0 0 16 16">
  <path d="M14 0a2 2 0 0 1 2 2v12a2 2 0 0 1-2 2H2a2 2 0 0 1-2-2V2a2 2 0 0 1 2-2h12zM5.904 10.803 10 6.707v2.768a.5.5 0 0 0 1 0V5.5a.5.5 0 0 0-.5-.5H6.525a.5.5 0 1 0 0 1h2.768l-4.096 4.096a.5.5 0 0 0 .707.707z"/>
</svg>