<!--
  - Copyright (c) 2023 - All rights reserved.
  - Created by Curtis Poon for PROCTECH 4IT3/SEP 6IT3.
  - SoA Notice: I Curtis Poon, 400263978 certify that this material is my original work.
  - I certify that no other person's work has been used without due acknowledgement.
  - I have also not made my work available to anyone else without their due acknowledgement.
  -->

<svg xmlns="http://www.w3.org/2000/svg" width="16" height="16" fill="currentColor" class="bi bi-arrows-angle-contract" viewBox="0 0 16 16">
  <path fill-rule="evenodd" d="M.172 15.828a.5.5 0 0 0 .707 0l4.096-4.096V14.5a.5.5 0 1 0 1 0v-3.975a.5.5 0 0 0-.5-.5H1.5a.5.5 0 0 0 0 1h2.768L.172 15.121a.5.5 0 0 0 0 .707zM15.828.172a.5.5 0 0 0-.707 0l-4.096 4.096V1.5a.5.5 0 1 0-1 0v3.975a.5.5 0 0 0 .5.5H14.5a.5.5 0 0 0 0-1h-2.768L15.828.879a.5.5 0 0 0 0-.707z"/>
</svg>