<!--
  - Copyright (c) 2023 - All rights reserved.
  - Created by Curtis Poon for PROCTECH 4IT3/SEP 6IT3.
  - SoA Notice: I Curtis Poon, 400263978 certify that this material is my original work.
  - I certify that no other person's work has been used without due acknowledgement.
  - I have also not made my work available to anyone else without their due acknowledgement.
  -->

<svg xmlns="http://www.w3.org/2000/svg" width="16" height="16" fill="currentColor" class="bi bi-bag-plus-fill" viewBox="0 0 16 16">
  <path fill-rule="evenodd" d="M10.5 3.5a2.5 2.5 0 0 0-5 0V4h5v-.5zm1 0V4H15v10a2 2 0 0 1-2 2H3a2 2 0 0 1-2-2V4h3.5v-.5a3.5 3.5 0 1 1 7 0zM8.5 8a.5.5 0 0 0-1 0v1.5H6a.5.5 0 0 0 0 1h1.5V12a.5.5 0 0 0 1 0v-1.5H10a.5.5 0 0 0 0-1H8.5V8z"/>
</svg>