<!--
  - Copyright (c) 2023 - All rights reserved.
  - Created by Curtis Poon for PROCTECH 4IT3/SEP 6IT3.
  - SoA Notice: I Curtis Poon, 400263978 certify that this material is my original work.
  - I certify that no other person's work has been used without due acknowledgement.
  - I have also not made my work available to anyone else without their due acknowledgement.
  -->

<svg xmlns="http://www.w3.org/2000/svg" width="16" height="16" fill="currentColor" class="bi bi-bank2" viewBox="0 0 16 16">
  <path d="M8.277.084a.5.5 0 0 0-.554 0l-7.5 5A.5.5 0 0 0 .5 6h1.875v7H1.5a.5.5 0 0 0 0 1h13a.5.5 0 1 0 0-1h-.875V6H15.5a.5.5 0 0 0 .277-.916l-7.5-5zM12.375 6v7h-1.25V6h1.25zm-2.5 0v7h-1.25V6h1.25zm-2.5 0v7h-1.25V6h1.25zm-2.5 0v7h-1.25V6h1.25zM8 4a1 1 0 1 1 0-2 1 1 0 0 1 0 2zM.5 15a.5.5 0 0 0 0 1h15a.5.5 0 1 0 0-1H.5z"/>
</svg>