<!--
  - Copyright (c) 2023 - All rights reserved.
  - Created by Curtis Poon for PROCTECH 4IT3/SEP 6IT3.
  - SoA Notice: I Curtis Poon, 400263978 certify that this material is my original work.
  - I certify that no other person's work has been used without due acknowledgement.
  - I have also not made my work available to anyone else without their due acknowledgement.
  -->

<svg xmlns="http://www.w3.org/2000/svg" width="16" height="16" fill="currentColor" class="bi bi-battery" viewBox="0 0 16 16">
  <path d="M0 6a2 2 0 0 1 2-2h10a2 2 0 0 1 2 2v4a2 2 0 0 1-2 2H2a2 2 0 0 1-2-2V6zm2-1a1 1 0 0 0-1 1v4a1 1 0 0 0 1 1h10a1 1 0 0 0 1-1V6a1 1 0 0 0-1-1H2zm14 3a1.5 1.5 0 0 1-1.5 1.5v-3A1.5 1.5 0 0 1 16 8z"/>
</svg>