<!--
  - Copyright (c) 2023 - All rights reserved.
  - Created by Curtis Poon for PROCTECH 4IT3/SEP 6IT3.
  - SoA Notice: I Curtis Poon, 400263978 certify that this material is my original work.
  - I certify that no other person's work has been used without due acknowledgement.
  - I have also not made my work available to anyone else without their due acknowledgement.
  -->

<svg xmlns="http://www.w3.org/2000/svg" width="16" height="16" fill="currentColor" class="bi bi-bell-slash-fill" viewBox="0 0 16 16">
  <path d="M5.164 14H15c-1.5-1-2-5.902-2-7 0-.264-.02-.523-.06-.776L5.164 14zm6.288-10.617A4.988 4.988 0 0 0 8.995 2.1a1 1 0 1 0-1.99 0A5.002 5.002 0 0 0 3 7c0 .898-.335 4.342-1.278 6.113l9.73-9.73zM10 15a2 2 0 1 1-4 0h4zm-9.375.625a.53.53 0 0 0 .75.75l14.75-14.75a.53.53 0 0 0-.75-.75L.625 15.625z"/>
</svg>