<!--
  - Copyright (c) 2023 - All rights reserved.
  - Created by Curtis Poon for PROCTECH 4IT3/SEP 6IT3.
  - SoA Notice: I Curtis Poon, 400263978 certify that this material is my original work.
  - I certify that no other person's work has been used without due acknowledgement.
  - I have also not made my work available to anyone else without their due acknowledgement.
  -->

<svg xmlns="http://www.w3.org/2000/svg" width="16" height="16" fill="currentColor" class="bi bi-bookshelf" viewBox="0 0 16 16">
  <path d="M2.5 0a.5.5 0 0 1 .5.5V2h10V.5a.5.5 0 0 1 1 0v15a.5.5 0 0 1-1 0V15H3v.5a.5.5 0 0 1-1 0V.5a.5.5 0 0 1 .5-.5zM3 14h10v-3H3v3zm0-4h10V7H3v3zm0-4h10V3H3v3z"/>
</svg>