<!--
  - Copyright (c) 2023 - All rights reserved.
  - Created by Curtis Poon for PROCTECH 4IT3/SEP 6IT3.
  - SoA Notice: I Curtis Poon, 400263978 certify that this material is my original work.
  - I certify that no other person's work has been used without due acknowledgement.
  - I have also not made my work available to anyone else without their due acknowledgement.
  -->

<svg xmlns="http://www.w3.org/2000/svg" width="16" height="16" fill="currentColor" class="bi bi-border-width" viewBox="0 0 16 16">
  <path d="M0 3.5A.5.5 0 0 1 .5 3h15a.5.5 0 0 1 .5.5v2a.5.5 0 0 1-.5.5H.5a.5.5 0 0 1-.5-.5v-2zm0 5A.5.5 0 0 1 .5 8h15a.5.5 0 0 1 .5.5v1a.5.5 0 0 1-.5.5H.5a.5.5 0 0 1-.5-.5v-1zm0 4a.5.5 0 0 1 .5-.5h15a.5.5 0 0 1 0 1H.5a.5.5 0 0 1-.5-.5z"/>
</svg>