<!--
  - Copyright (c) 2023 - All rights reserved.
  - Created by Curtis Poon for PROCTECH 4IT3/SEP 6IT3.
  - SoA Notice: I Curtis Poon, 400263978 certify that this material is my original work.
  - I certify that no other person's work has been used without due acknowledgement.
  - I have also not made my work available to anyone else without their due acknowledgement.
  -->

<svg xmlns="http://www.w3.org/2000/svg" width="16" height="16" fill="currentColor" class="bi bi-box-arrow-down-left" viewBox="0 0 16 16">
  <path fill-rule="evenodd" d="M7.364 12.5a.5.5 0 0 0 .5.5H14.5a1.5 1.5 0 0 0 1.5-1.5v-10A1.5 1.5 0 0 0 14.5 0h-10A1.5 1.5 0 0 0 3 1.5v6.636a.5.5 0 1 0 1 0V1.5a.5.5 0 0 1 .5-.5h10a.5.5 0 0 1 .5.5v10a.5.5 0 0 1-.5.5H7.864a.5.5 0 0 0-.5.5z"/>
  <path fill-rule="evenodd" d="M0 15.5a.5.5 0 0 0 .5.5h5a.5.5 0 0 0 0-1H1.707l8.147-8.146a.5.5 0 0 0-.708-.708L1 14.293V10.5a.5.5 0 0 0-1 0v5z"/>
</svg>