<!--
  - Copyright (c) 2023 - All rights reserved.
  - Created by Curtis Poon for PROCTECH 4IT3/SEP 6IT3.
  - SoA Notice: I Curtis Poon, 400263978 certify that this material is my original work.
  - I certify that no other person's work has been used without due acknowledgement.
  - I have also not made my work available to anyone else without their due acknowledgement.
  -->

<svg xmlns="http://www.w3.org/2000/svg" width="16" height="16" fill="currentColor" class="bi bi-box-arrow-in-down-left" viewBox="0 0 16 16">
  <path fill-rule="evenodd" d="M9.636 2.5a.5.5 0 0 0-.5-.5H2.5A1.5 1.5 0 0 0 1 3.5v10A1.5 1.5 0 0 0 2.5 15h10a1.5 1.5 0 0 0 1.5-1.5V6.864a.5.5 0 0 0-1 0V13.5a.5.5 0 0 1-.5.5h-10a.5.5 0 0 1-.5-.5v-10a.5.5 0 0 1 .5-.5h6.636a.5.5 0 0 0 .5-.5z"/>
  <path fill-rule="evenodd" d="M5 10.5a.5.5 0 0 0 .5.5h5a.5.5 0 0 0 0-1H6.707l8.147-8.146a.5.5 0 0 0-.708-.708L6 9.293V5.5a.5.5 0 0 0-1 0v5z"/>
</svg>