<!--
  - Copyright (c) 2023 - All rights reserved.
  - Created by Curtis Poon for PROCTECH 4IT3/SEP 6IT3.
  - SoA Notice: I Curtis Poon, 400263978 certify that this material is my original work.
  - I certify that no other person's work has been used without due acknowledgement.
  - I have also not made my work available to anyone else without their due acknowledgement.
  -->

<svg xmlns="http://www.w3.org/2000/svg" width="16" height="16" fill="currentColor" class="bi bi-box2-fill" viewBox="0 0 16 16">
  <path d="M3.75 0a1 1 0 0 0-.8.4L.1 4.2a.5.5 0 0 0-.1.3V15a1 1 0 0 0 1 1h14a1 1 0 0 0 1-1V4.5a.5.5 0 0 0-.1-.3L13.05.4a1 1 0 0 0-.8-.4h-8.5ZM15 4.667V5H1v-.333L1.5 4h6V1h1v3h6l.5.667Z"/>
</svg>