<!--
  - Copyright (c) 2023 - All rights reserved.
  - Created by Curtis Poon for PROCTECH 4IT3/SEP 6IT3.
  - SoA Notice: I Curtis Poon, 400263978 certify that this material is my original work.
  - I certify that no other person's work has been used without due acknowledgement.
  - I have also not made my work available to anyone else without their due acknowledgement.
  -->

<svg xmlns="http://www.w3.org/2000/svg" width="16" height="16" fill="currentColor" class="bi bi-box2" viewBox="0 0 16 16">
  <path d="M2.95.4a1 1 0 0 1 .8-.4h8.5a1 1 0 0 1 .8.4l2.85 3.8a.5.5 0 0 1 .1.3V15a1 1 0 0 1-1 1H1a1 1 0 0 1-1-1V4.5a.5.5 0 0 1 .1-.3L2.95.4ZM7.5 1H3.75L1.5 4h6V1Zm1 0v3h6l-2.25-3H8.5ZM15 5H1v10h14V5Z"/>
</svg>