<!--
  - Copyright (c) 2023 - All rights reserved.
  - Created by Curtis Poon for PROCTECH 4IT3/SEP 6IT3.
  - SoA Notice: I Curtis Poon, 400263978 certify that this material is my original work.
  - I certify that no other person's work has been used without due acknowledgement.
  - I have also not made my work available to anyone else without their due acknowledgement.
  -->

<svg xmlns="http://www.w3.org/2000/svg" width="16" height="16" fill="currentColor" class="bi bi-brightness-alt-low" viewBox="0 0 16 16">
  <path d="M8.5 5.5a.5.5 0 1 1-1 0 .5.5 0 0 1 1 0zm5 6a.5.5 0 1 1 0-1 .5.5 0 0 1 0 1zM2 11a.5.5 0 1 0 1 0 .5.5 0 0 0-1 0zm10.243-3.536a.5.5 0 1 1-.707-.707.5.5 0 0 1 .707.707zm-8.486-.707a.5.5 0 1 0 .707.707.5.5 0 0 0-.707-.707zM8 7a4 4 0 0 0-4 4 .5.5 0 0 0 .5.5h7a.5.5 0 0 0 .5-.5 4 4 0 0 0-4-4zm0 1a3 3 0 0 1 2.959 2.5H5.04A3 3 0 0 1 8 8z"/>
</svg>