<!--
  - Copyright (c) 2023 - All rights reserved.
  - Created by Curtis Poon for PROCTECH 4IT3/SEP 6IT3.
  - SoA Notice: I Curtis Poon, 400263978 certify that this material is my original work.
  - I certify that no other person's work has been used without due acknowledgement.
  - I have also not made my work available to anyone else without their due acknowledgement.
  -->

<svg xmlns="http://www.w3.org/2000/svg" width="16" height="16" fill="currentColor" class="bi bi-brightness-low" viewBox="0 0 16 16">
  <path d="M8 11a3 3 0 1 1 0-6 3 3 0 0 1 0 6zm0 1a4 4 0 1 0 0-8 4 4 0 0 0 0 8zm.5-9.5a.5.5 0 1 1-1 0 .5.5 0 0 1 1 0zm0 11a.5.5 0 1 1-1 0 .5.5 0 0 1 1 0zm5-5a.5.5 0 1 1 0-1 .5.5 0 0 1 0 1zm-11 0a.5.5 0 1 1 0-1 .5.5 0 0 1 0 1zm9.743-4.036a.5.5 0 1 1-.707-.707.5.5 0 0 1 .707.707zm-7.779 7.779a.5.5 0 1 1-.707-.707.5.5 0 0 1 .707.707zm7.072 0a.5.5 0 1 1 .707-.707.5.5 0 0 1-.707.707zM3.757 4.464a.5.5 0 1 1 .707-.707.5.5 0 0 1-.707.707z"/>
</svg>