<!--
  - Copyright (c) 2023 - All rights reserved.
  - Created by Curtis Poon for PROCTECH 4IT3/SEP 6IT3.
  - SoA Notice: I Curtis Poon, 400263978 certify that this material is my original work.
  - I certify that no other person's work has been used without due acknowledgement.
  - I have also not made my work available to anyone else without their due acknowledgement.
  -->

<svg xmlns="http://www.w3.org/2000/svg" width="16" height="16" fill="currentColor" class="bi bi-calendar3-range-fill" viewBox="0 0 16 16">
  <path fill-rule="evenodd" d="M2 0a2 2 0 0 0-2 2h16a2 2 0 0 0-2-2H2zM0 8V3h16v2h-6a1 1 0 1 0 0 2h6v7a2 2 0 0 1-2 2H2a2 2 0 0 1-2-2v-4h6a1 1 0 1 0 0-2H0z"/>
</svg>