<!--
  - Copyright (c) 2023 - All rights reserved.
  - Created by Curtis Poon for PROCTECH 4IT3/SEP 6IT3.
  - SoA Notice: I Curtis Poon, 400263978 certify that this material is my original work.
  - I certify that no other person's work has been used without due acknowledgement.
  - I have also not made my work available to anyone else without their due acknowledgement.
  -->

<svg xmlns="http://www.w3.org/2000/svg" width="16" height="16" fill="currentColor" class="bi bi-camera-reels-fill" viewBox="0 0 16 16">
  <path d="M6 3a3 3 0 1 1-6 0 3 3 0 0 1 6 0z"/>
  <path d="M9 6a3 3 0 1 1 0-6 3 3 0 0 1 0 6z"/>
  <path d="M9 6h.5a2 2 0 0 1 1.983 1.738l3.11-1.382A1 1 0 0 1 16 7.269v7.462a1 1 0 0 1-1.406.913l-3.111-1.382A2 2 0 0 1 9.5 16H2a2 2 0 0 1-2-2V8a2 2 0 0 1 2-2h7z"/>
</svg>