<!--
  - Copyright (c) 2023 - All rights reserved.
  - Created by Curtis Poon for PROCTECH 4IT3/SEP 6IT3.
  - SoA Notice: I Curtis Poon, 400263978 certify that this material is my original work.
  - I certify that no other person's work has been used without due acknowledgement.
  - I have also not made my work available to anyone else without their due acknowledgement.
  -->

<svg xmlns="http://www.w3.org/2000/svg" width="16" height="16" fill="currentColor" class="bi bi-chat-square-dots-fill" viewBox="0 0 16 16">
  <path d="M0 2a2 2 0 0 1 2-2h12a2 2 0 0 1 2 2v8a2 2 0 0 1-2 2h-2.5a1 1 0 0 0-.8.4l-1.9 2.533a1 1 0 0 1-1.6 0L5.3 12.4a1 1 0 0 0-.8-.4H2a2 2 0 0 1-2-2V2zm5 4a1 1 0 1 0-2 0 1 1 0 0 0 2 0zm4 0a1 1 0 1 0-2 0 1 1 0 0 0 2 0zm3 1a1 1 0 1 0 0-2 1 1 0 0 0 0 2z"/>
</svg>