<!--
  - Copyright (c) 2023 - All rights reserved.
  - Created by Curtis Poon for PROCTECH 4IT3/SEP 6IT3.
  - SoA Notice: I Curtis Poon, 400263978 certify that this material is my original work.
  - I certify that no other person's work has been used without due acknowledgement.
  - I have also not made my work available to anyone else without their due acknowledgement.
  -->

<svg xmlns="http://www.w3.org/2000/svg" width="16" height="16" fill="currentColor" class="bi bi-check-circle" viewBox="0 0 16 16">
  <path d="M8 15A7 7 0 1 1 8 1a7 7 0 0 1 0 14zm0 1A8 8 0 1 0 8 0a8 8 0 0 0 0 16z"/>
  <path d="M10.97 4.97a.235.235 0 0 0-.02.022L7.477 9.417 5.384 7.323a.75.75 0 0 0-1.06 1.06L6.97 11.03a.75.75 0 0 0 1.079-.02l3.992-4.99a.75.75 0 0 0-1.071-1.05z"/>
</svg>