<!--
  - Copyright (c) 2023 - All rights reserved.
  - Created by Curtis Poon for PROCTECH 4IT3/SEP 6IT3.
  - SoA Notice: I Curtis Poon, 400263978 certify that this material is my original work.
  - I certify that no other person's work has been used without due acknowledgement.
  - I have also not made my work available to anyone else without their due acknowledgement.
  -->

<svg xmlns="http://www.w3.org/2000/svg" width="16" height="16" fill="currentColor" class="bi bi-chevron-bar-up" viewBox="0 0 16 16">
  <path fill-rule="evenodd" d="M3.646 11.854a.5.5 0 0 0 .708 0L8 8.207l3.646 3.647a.5.5 0 0 0 .708-.708l-4-4a.5.5 0 0 0-.708 0l-4 4a.5.5 0 0 0 0 .708zM2.4 5.2c0 .22.18.4.4.4h10.4a.4.4 0 0 0 0-.8H2.8a.4.4 0 0 0-.4.4z"/>
</svg>