<!--
  - Copyright (c) 2023 - All rights reserved.
  - Created by Curtis Poon for PROCTECH 4IT3/SEP 6IT3.
  - SoA Notice: I Curtis Poon, 400263978 certify that this material is my original work.
  - I certify that no other person's work has been used without due acknowledgement.
  - I have also not made my work available to anyone else without their due acknowledgement.
  -->

<svg xmlns="http://www.w3.org/2000/svg" width="16" height="16" fill="currentColor" class="bi bi-clipboard2-fill" viewBox="0 0 16 16">
  <path d="M9.5 0a.5.5 0 0 1 .5.5.5.5 0 0 0 .5.5.5.5 0 0 1 .5.5V2a.5.5 0 0 1-.5.5h-5A.5.5 0 0 1 5 2v-.5a.5.5 0 0 1 .5-.5.5.5 0 0 0 .5-.5.5.5 0 0 1 .5-.5h3Z"/>
  <path d="M3.5 1h.585A1.498 1.498 0 0 0 4 1.5V2a1.5 1.5 0 0 0 1.5 1.5h5A1.5 1.5 0 0 0 12 2v-.5c0-.175-.03-.344-.085-.5h.585A1.5 1.5 0 0 1 14 2.5v12a1.5 1.5 0 0 1-1.5 1.5h-9A1.5 1.5 0 0 1 2 14.5v-12A1.5 1.5 0 0 1 3.5 1Z"/>
</svg>