<!--
  - Copyright (c) 2023 - All rights reserved.
  - Created by Curtis Poon for PROCTECH 4IT3/SEP 6IT3.
  - SoA Notice: I Curtis Poon, 400263978 certify that this material is my original work.
  - I certify that no other person's work has been used without due acknowledgement.
  - I have also not made my work available to anyone else without their due acknowledgement.
  -->

<svg xmlns="http://www.w3.org/2000/svg" width="16" height="16" fill="currentColor" class="bi bi-cloud-haze2-fill" viewBox="0 0 16 16">
  <path d="M8.5 2a5.001 5.001 0 0 1 4.905 4.027A3 3 0 0 1 13 12H3.5A3.5 3.5 0 0 1 .035 9H5.5a.5.5 0 0 0 0-1H.035a3.5 3.5 0 0 1 3.871-2.977A5.001 5.001 0 0 1 8.5 2zm-6 8a.5.5 0 0 0 0 1h9a.5.5 0 0 0 0-1h-9zM0 13.5a.5.5 0 0 1 .5-.5h9a.5.5 0 0 1 0 1h-9a.5.5 0 0 1-.5-.5z"/>
</svg>