<!--
  - Copyright (c) 2023 - All rights reserved.
  - Created by Curtis Poon for PROCTECH 4IT3/SEP 6IT3.
  - SoA Notice: I Curtis Poon, 400263978 certify that this material is my original work.
  - I certify that no other person's work has been used without due acknowledgement.
  - I have also not made my work available to anyone else without their due acknowledgement.
  -->

<svg xmlns="http://www.w3.org/2000/svg" width="16" height="16" fill="currentColor" class="bi bi-collection-fill" viewBox="0 0 16 16">
  <path d="M0 13a1.5 1.5 0 0 0 1.5 1.5h13A1.5 1.5 0 0 0 16 13V6a1.5 1.5 0 0 0-1.5-1.5h-13A1.5 1.5 0 0 0 0 6v7zM2 3a.5.5 0 0 0 .5.5h11a.5.5 0 0 0 0-1h-11A.5.5 0 0 0 2 3zm2-2a.5.5 0 0 0 .5.5h7a.5.5 0 0 0 0-1h-7A.5.5 0 0 0 4 1z"/>
</svg>