<!--
  - Copyright (c) 2023 - All rights reserved.
  - Created by Curtis Poon for PROCTECH 4IT3/SEP 6IT3.
  - SoA Notice: I Curtis Poon, 400263978 certify that this material is my original work.
  - I certify that no other person's work has been used without due acknowledgement.
  - I have also not made my work available to anyone else without their due acknowledgement.
  -->

<svg xmlns="http://www.w3.org/2000/svg" width="16" height="16" fill="currentColor" class="bi bi-credit-card-fill" viewBox="0 0 16 16">
  <path d="M0 4a2 2 0 0 1 2-2h12a2 2 0 0 1 2 2v1H0V4zm0 3v5a2 2 0 0 0 2 2h12a2 2 0 0 0 2-2V7H0zm3 2h1a1 1 0 0 1 1 1v1a1 1 0 0 1-1 1H3a1 1 0 0 1-1-1v-1a1 1 0 0 1 1-1z"/>
</svg>