<!--
  - Copyright (c) 2023 - All rights reserved.
  - Created by Curtis Poon for PROCTECH 4IT3/SEP 6IT3.
  - SoA Notice: I Curtis Poon, 400263978 certify that this material is my original work.
  - I certify that no other person's work has been used without due acknowledgement.
  - I have also not made my work available to anyone else without their due acknowledgement.
  -->

<svg xmlns="http://www.w3.org/2000/svg" width="16" height="16" fill="currentColor" class="bi bi-device-hdd-fill" viewBox="0 0 16 16">
  <path d="M8.785 9.896A3.001 3.001 0 0 0 8 4a3 3 0 0 0-.891 5.865c.667-.44 1.396-.91 1.955-1.268.224-.144.483.115.34.34l-.62.96ZM9 7a1 1 0 1 1-2 0 1 1 0 0 1 2 0Z"/>
  <path d="M4 0a2 2 0 0 0-2 2v12a2 2 0 0 0 2 2h8a2 2 0 0 0 2-2V2a2 2 0 0 0-2-2H4Zm9 1.5a.5.5 0 1 1-1 0 .5.5 0 0 1 1 0Zm0 13a.5.5 0 1 1-1 0 .5.5 0 0 1 1 0Zm-9.5.5a.5.5 0 1 1 0-1 .5.5 0 0 1 0 1ZM4 1.5a.5.5 0 1 1-1 0 .5.5 0 0 1 1 0Zm2.882 11.177a1.102 1.102 0 0 1-1.56-1.559c.1-.098.396-.314.795-.588a4 4 0 1 1 1.946.47c-.537.813-1.02 1.515-1.181 1.677Z"/>
</svg>