<!--
  - Copyright (c) 2023 - All rights reserved.
  - Created by Curtis Poon for PROCTECH 4IT3/SEP 6IT3.
  - SoA Notice: I Curtis Poon, 400263978 certify that this material is my original work.
  - I certify that no other person's work has been used without due acknowledgement.
  - I have also not made my work available to anyone else without their due acknowledgement.
  -->

<svg xmlns="http://www.w3.org/2000/svg" width="16" height="16" fill="currentColor" class="bi bi-displayport-fill" viewBox="0 0 16 16">
  <path d="M1 5a1 1 0 0 0-1 1v3.191a1 1 0 0 0 .553.894l1.618.81a1 1 0 0 0 .447.105H15a1 1 0 0 0 1-1V6a1 1 0 0 0-1-1H1Zm1.5 2h11a.5.5 0 0 1 .5.5v1a.5.5 0 0 1-1 0V8H3v.5a.5.5 0 0 1-1 0v-1a.5.5 0 0 1 .5-.5Z"/>
</svg>