<!--
  - Copyright (c) 2023 - All rights reserved.
  - Created by Curtis Poon for PROCTECH 4IT3/SEP 6IT3.
  - SoA Notice: I Curtis Poon, 400263978 certify that this material is my original work.
  - I certify that no other person's work has been used without due acknowledgement.
  - I have also not made my work available to anyone else without their due acknowledgement.
  -->

<svg xmlns="http://www.w3.org/2000/svg" width="16" height="16" fill="currentColor" class="bi bi-door-open-fill" viewBox="0 0 16 16">
  <path d="M1.5 15a.5.5 0 0 0 0 1h13a.5.5 0 0 0 0-1H13V2.5A1.5 1.5 0 0 0 11.5 1H11V.5a.5.5 0 0 0-.57-.495l-7 1A.5.5 0 0 0 3 1.5V15H1.5zM11 2h.5a.5.5 0 0 1 .5.5V15h-1V2zm-2.5 8c-.276 0-.5-.448-.5-1s.224-1 .5-1 .5.448.5 1-.224 1-.5 1z"/>
</svg>