<!--
  - Copyright (c) 2023 - All rights reserved.
  - Created by Curtis Poon for PROCTECH 4IT3/SEP 6IT3.
  - SoA Notice: I Curtis Poon, 400263978 certify that this material is my original work.
  - I certify that no other person's work has been used without due acknowledgement.
  - I have also not made my work available to anyone else without their due acknowledgement.
  -->

<svg xmlns="http://www.w3.org/2000/svg" width="16" height="16" fill="currentColor" class="bi bi-envelope-open-fill" viewBox="0 0 16 16">
  <path d="M8.941.435a2 2 0 0 0-1.882 0l-6 3.2A2 2 0 0 0 0 5.4v.314l6.709 3.932L8 8.928l1.291.718L16 5.714V5.4a2 2 0 0 0-1.059-1.765l-6-3.2ZM16 6.873l-5.693 3.337L16 13.372v-6.5Zm-.059 7.611L8 10.072.059 14.484A2 2 0 0 0 2 16h12a2 2 0 0 0 1.941-1.516ZM0 13.373l5.693-3.163L0 6.873v6.5Z"/>
</svg>