<!--
  - Copyright (c) 2023 - All rights reserved.
  - Created by Curtis Poon for PROCTECH 4IT3/SEP 6IT3.
  - SoA Notice: I Curtis Poon, 400263978 certify that this material is my original work.
  - I certify that no other person's work has been used without due acknowledgement.
  - I have also not made my work available to anyone else without their due acknowledgement.
  -->

<svg xmlns="http://www.w3.org/2000/svg" width="16" height="16" fill="currentColor" class="bi bi-escape" viewBox="0 0 16 16">
  <path d="M8.538 1.02a.5.5 0 1 0-.076.998 6 6 0 1 1-6.445 6.444.5.5 0 0 0-.997.076A7 7 0 1 0 8.538 1.02Z"/>
  <path d="M7.096 7.828a.5.5 0 0 0 .707-.707L2.707 2.025h2.768a.5.5 0 1 0 0-1H1.5a.5.5 0 0 0-.5.5V5.5a.5.5 0 0 0 1 0V2.732l5.096 5.096Z"/>
</svg>