<!--
  - Copyright (c) 2023 - All rights reserved.
  - Created by Curtis Poon for PROCTECH 4IT3/SEP 6IT3.
  - SoA Notice: I Curtis Poon, 400263978 certify that this material is my original work.
  - I certify that no other person's work has been used without due acknowledgement.
  - I have also not made my work available to anyone else without their due acknowledgement.
  -->

<svg xmlns="http://www.w3.org/2000/svg" width="16" height="16" fill="currentColor" class="bi bi-eyeglasses" viewBox="0 0 16 16">
  <path d="M4 6a2 2 0 1 1 0 4 2 2 0 0 1 0-4zm2.625.547a3 3 0 0 0-5.584.953H.5a.5.5 0 0 0 0 1h.541A3 3 0 0 0 7 8a1 1 0 0 1 2 0 3 3 0 0 0 5.959.5h.541a.5.5 0 0 0 0-1h-.541a3 3 0 0 0-5.584-.953A1.993 1.993 0 0 0 8 6c-.532 0-1.016.208-1.375.547zM14 8a2 2 0 1 1-4 0 2 2 0 0 1 4 0z"/>
</svg>