<!--
  - Copyright (c) 2023 - All rights reserved.
  - Created by Curtis Poon for PROCTECH 4IT3/SEP 6IT3.
  - SoA Notice: I Curtis Poon, 400263978 certify that this material is my original work.
  - I certify that no other person's work has been used without due acknowledgement.
  - I have also not made my work available to anyone else without their due acknowledgement.
  -->

<svg xmlns="http://www.w3.org/2000/svg" width="16" height="16" fill="currentColor" class="bi bi-fast-forward-circle" viewBox="0 0 16 16">
  <path d="M8 15A7 7 0 1 1 8 1a7 7 0 0 1 0 14Zm0 1A8 8 0 1 0 8 0a8 8 0 0 0 0 16Z"/>
  <path d="M4.271 5.055a.5.5 0 0 1 .52.038L8 7.386V5.5a.5.5 0 0 1 .79-.407l3.5 2.5a.5.5 0 0 1 0 .814l-3.5 2.5A.5.5 0 0 1 8 10.5V8.614l-3.21 2.293A.5.5 0 0 1 4 10.5v-5a.5.5 0 0 1 .271-.445Z"/>
</svg>