<!--
  - Copyright (c) 2023 - All rights reserved.
  - Created by Curtis Poon for PROCTECH 4IT3/SEP 6IT3.
  - SoA Notice: I Curtis Poon, 400263978 certify that this material is my original work.
  - I certify that no other person's work has been used without due acknowledgement.
  - I have also not made my work available to anyone else without their due acknowledgement.
  -->

<svg xmlns="http://www.w3.org/2000/svg" width="16" height="16" fill="currentColor" class="bi bi-fast-forward-btn-fill" viewBox="0 0 16 16">
  <path d="M0 4v8a2 2 0 0 0 2 2h12a2 2 0 0 0 2-2V4a2 2 0 0 0-2-2H2a2 2 0 0 0-2 2Zm4.271 1.055a.5.5 0 0 1 .52.038L8 7.386V5.5a.5.5 0 0 1 .79-.407l3.5 2.5a.5.5 0 0 1 0 .814l-3.5 2.5A.5.5 0 0 1 8 10.5V8.614l-3.21 2.293A.5.5 0 0 1 4 10.5v-5a.5.5 0 0 1 .271-.445Z"/>
</svg>