<!--
  - Copyright (c) 2023 - All rights reserved.
  - Created by Curtis Poon for PROCTECH 4IT3/SEP 6IT3.
  - SoA Notice: I Curtis Poon, 400263978 certify that this material is my original work.
  - I certify that no other person's work has been used without due acknowledgement.
  - I have also not made my work available to anyone else without their due acknowledgement.
  -->

<svg xmlns="http://www.w3.org/2000/svg" width="16" height="16" fill="currentColor" class="bi bi-file-break" viewBox="0 0 16 16">
  <path d="M0 10.5a.5.5 0 0 1 .5-.5h15a.5.5 0 0 1 0 1H.5a.5.5 0 0 1-.5-.5zM12 0H4a2 2 0 0 0-2 2v7h1V2a1 1 0 0 1 1-1h8a1 1 0 0 1 1 1v7h1V2a2 2 0 0 0-2-2zm2 12h-1v2a1 1 0 0 1-1 1H4a1 1 0 0 1-1-1v-2H2v2a2 2 0 0 0 2 2h8a2 2 0 0 0 2-2v-2z"/>
</svg>