<!--
  - Copyright (c) 2023 - All rights reserved.
  - Created by Curtis Poon for PROCTECH 4IT3/SEP 6IT3.
  - SoA Notice: I Curtis Poon, 400263978 certify that this material is my original work.
  - I certify that no other person's work has been used without due acknowledgement.
  - I have also not made my work available to anyone else without their due acknowledgement.
  -->

<svg xmlns="http://www.w3.org/2000/svg" width="16" height="16" fill="currentColor" class="bi bi-file-ppt-fill" viewBox="0 0 16 16">
  <path d="M8.188 8.5H7V5h1.188a1.75 1.75 0 1 1 0 3.5z"/>
  <path d="M4 0h8a2 2 0 0 1 2 2v12a2 2 0 0 1-2 2H4a2 2 0 0 1-2-2V2a2 2 0 0 1 2-2zm3 4a1 1 0 0 0-1 1v6.5a.5.5 0 0 0 1 0v-2h1.188a2.75 2.75 0 0 0 0-5.5H7z"/>
</svg>