<!--
  - Copyright (c) 2023 - All rights reserved.
  - Created by Curtis Poon for PROCTECH 4IT3/SEP 6IT3.
  - SoA Notice: I Curtis Poon, 400263978 certify that this material is my original work.
  - I certify that no other person's work has been used without due acknowledgement.
  - I have also not made my work available to anyone else without their due acknowledgement.
  -->

<svg xmlns="http://www.w3.org/2000/svg" width="16" height="16" fill="currentColor" class="bi bi-file-earmark-medical" viewBox="0 0 16 16">
  <path d="M7.5 5.5a.5.5 0 0 0-1 0v.634l-.549-.317a.5.5 0 1 0-.5.866L6 7l-.549.317a.5.5 0 1 0 .5.866l.549-.317V8.5a.5.5 0 1 0 1 0v-.634l.549.317a.5.5 0 1 0 .5-.866L8 7l.549-.317a.5.5 0 1 0-.5-.866l-.549.317V5.5zm-2 4.5a.5.5 0 0 0 0 1h5a.5.5 0 0 0 0-1h-5zm0 2a.5.5 0 0 0 0 1h5a.5.5 0 0 0 0-1h-5z"/>
  <path d="M14 14V4.5L9.5 0H4a2 2 0 0 0-2 2v12a2 2 0 0 0 2 2h8a2 2 0 0 0 2-2zM9.5 3A1.5 1.5 0 0 0 11 4.5h2V14a1 1 0 0 1-1 1H4a1 1 0 0 1-1-1V2a1 1 0 0 1 1-1h5.5v2z"/>
</svg>