<!--
  - Copyright (c) 2023 - All rights reserved.
  - Created by Curtis Poon for PROCTECH 4IT3/SEP 6IT3.
  - SoA Notice: I Curtis Poon, 400263978 certify that this material is my original work.
  - I certify that no other person's work has been used without due acknowledgement.
  - I have also not made my work available to anyone else without their due acknowledgement.
  -->

<svg xmlns="http://www.w3.org/2000/svg" width="16" height="16" fill="currentColor" class="bi bi-file-excel-fill" viewBox="0 0 16 16">
  <path d="M12 0H4a2 2 0 0 0-2 2v12a2 2 0 0 0 2 2h8a2 2 0 0 0 2-2V2a2 2 0 0 0-2-2zM5.884 4.68 8 7.219l2.116-2.54a.5.5 0 1 1 .768.641L8.651 8l2.233 2.68a.5.5 0 0 1-.768.64L8 8.781l-2.116 2.54a.5.5 0 0 1-.768-.641L7.349 8 5.116 5.32a.5.5 0 1 1 .768-.64z"/>
</svg>