<!--
  - Copyright (c) 2023 - All rights reserved.
  - Created by Curtis Poon for PROCTECH 4IT3/SEP 6IT3.
  - SoA Notice: I Curtis Poon, 400263978 certify that this material is my original work.
  - I certify that no other person's work has been used without due acknowledgement.
  - I have also not made my work available to anyone else without their due acknowledgement.
  -->

<svg xmlns="http://www.w3.org/2000/svg" width="16" height="16" fill="currentColor" class="bi bi-file-image" viewBox="0 0 16 16">
  <path d="M8.002 5.5a1.5 1.5 0 1 1-3 0 1.5 1.5 0 0 1 3 0z"/>
  <path d="M12 0H4a2 2 0 0 0-2 2v12a2 2 0 0 0 2 2h8a2 2 0 0 0 2-2V2a2 2 0 0 0-2-2zM3 2a1 1 0 0 1 1-1h8a1 1 0 0 1 1 1v8l-2.083-2.083a.5.5 0 0 0-.76.063L8 11 5.835 9.7a.5.5 0 0 0-.611.076L3 12V2z"/>
</svg>