<!--
  - Copyright (c) 2023 - All rights reserved.
  - Created by Curtis Poon for PROCTECH 4IT3/SEP 6IT3.
  - SoA Notice: I Curtis Poon, 400263978 certify that this material is my original work.
  - I certify that no other person's work has been used without due acknowledgement.
  - I have also not made my work available to anyone else without their due acknowledgement.
  -->

<svg xmlns="http://www.w3.org/2000/svg" width="16" height="16" fill="currentColor" class="bi bi-file-richtext-fill" viewBox="0 0 16 16">
  <path d="M12 0H4a2 2 0 0 0-2 2v12a2 2 0 0 0 2 2h8a2 2 0 0 0 2-2V2a2 2 0 0 0-2-2zM7 4.25a.75.75 0 1 1-1.5 0 .75.75 0 0 1 1.5 0zm-.861 1.542 1.33.886 1.854-1.855a.25.25 0 0 1 .289-.047l1.888.974V7.5a.5.5 0 0 1-.5.5H5a.5.5 0 0 1-.5-.5V7s1.54-1.274 1.639-1.208zM5 9h6a.5.5 0 0 1 0 1H5a.5.5 0 0 1 0-1zm0 2h3a.5.5 0 0 1 0 1H5a.5.5 0 0 1 0-1z"/>
</svg>