<!--
  - Copyright (c) 2023 - All rights reserved.
  - Created by Curtis Poon for PROCTECH 4IT3/SEP 6IT3.
  - SoA Notice: I Curtis Poon, 400263978 certify that this material is my original work.
  - I certify that no other person's work has been used without due acknowledgement.
  - I have also not made my work available to anyone else without their due acknowledgement.
  -->

<svg xmlns="http://www.w3.org/2000/svg" width="16" height="16" fill="currentColor" class="bi bi-file-ruled" viewBox="0 0 16 16">
  <path d="M2 2a2 2 0 0 1 2-2h8a2 2 0 0 1 2 2v12a2 2 0 0 1-2 2H4a2 2 0 0 1-2-2V2zm2-1a1 1 0 0 0-1 1v4h10V2a1 1 0 0 0-1-1H4zm9 6H6v2h7V7zm0 3H6v2h7v-2zm0 3H6v2h6a1 1 0 0 0 1-1v-1zm-8 2v-2H3v1a1 1 0 0 0 1 1h1zm-2-3h2v-2H3v2zm0-3h2V7H3v2z"/>
</svg>