<!--
  - Copyright (c) 2023 - All rights reserved.
  - Created by Curtis Poon for PROCTECH 4IT3/SEP 6IT3.
  - SoA Notice: I Curtis Poon, 400263978 certify that this material is my original work.
  - I certify that no other person's work has been used without due acknowledgement.
  - I have also not made my work available to anyone else without their due acknowledgement.
  -->

<svg xmlns="http://www.w3.org/2000/svg" width="16" height="16" fill="currentColor" class="bi bi-file-diff-fill" viewBox="0 0 16 16">
  <path d="M12 0H4a2 2 0 0 0-2 2v12a2 2 0 0 0 2 2h8a2 2 0 0 0 2-2V2a2 2 0 0 0-2-2zM8.5 4.5V6H10a.5.5 0 0 1 0 1H8.5v1.5a.5.5 0 0 1-1 0V7H6a.5.5 0 0 1 0-1h1.5V4.5a.5.5 0 0 1 1 0zM6 10h4a.5.5 0 0 1 0 1H6a.5.5 0 0 1 0-1z"/>
</svg>