<!--
  - Copyright (c) 2023 - All rights reserved.
  - Created by Curtis Poon for PROCTECH 4IT3/SEP 6IT3.
  - SoA Notice: I Curtis Poon, 400263978 certify that this material is my original work.
  - I certify that no other person's work has been used without due acknowledgement.
  - I have also not made my work available to anyone else without their due acknowledgement.
  -->

<svg xmlns="http://www.w3.org/2000/svg" width="16" height="16" fill="currentColor" class="bi bi-file-image-fill" viewBox="0 0 16 16">
  <path d="M4 0h8a2 2 0 0 1 2 2v8.293l-2.73-2.73a1 1 0 0 0-1.52.127l-1.889 2.644-1.769-1.062a1 1 0 0 0-1.222.15L2 12.292V2a2 2 0 0 1 2-2zm4.002 5.5a1.5 1.5 0 1 0-3 0 1.5 1.5 0 0 0 3 0z"/>
  <path d="M10.564 8.27 14 11.708V14a2 2 0 0 1-2 2H4a2 2 0 0 1-2-2v-.293l3.578-3.577 2.56 1.536 2.426-3.395z"/>
</svg>