<!--
  - Copyright (c) 2023 - All rights reserved.
  - Created by Curtis Poon for PROCTECH 4IT3/SEP 6IT3.
  - SoA Notice: I Curtis Poon, 400263978 certify that this material is my original work.
  - I certify that no other person's work has been used without due acknowledgement.
  - I have also not made my work available to anyone else without their due acknowledgement.
  -->

<svg xmlns="http://www.w3.org/2000/svg" width="16" height="16" fill="currentColor" class="bi bi-file-easel-fill" viewBox="0 0 16 16">
  <path d="M5 6.5a.5.5 0 0 1 .5-.5h5a.5.5 0 0 1 .5.5v2a.5.5 0 0 1-.5.5h-5a.5.5 0 0 1-.5-.5v-2z"/>
  <path d="M12 0H4a2 2 0 0 0-2 2v12a2 2 0 0 0 2 2h8a2 2 0 0 0 2-2V2a2 2 0 0 0-2-2zM8.5 5h2A1.5 1.5 0 0 1 12 6.5v2a1.5 1.5 0 0 1-1.5 1.5h-.473l.447 1.342a.5.5 0 0 1-.948.316L8.973 10H8.5v1a.5.5 0 0 1-1 0v-1h-.473l-.553 1.658a.5.5 0 1 1-.948-.316L5.973 10H5.5A1.5 1.5 0 0 1 4 8.5v-2A1.5 1.5 0 0 1 5.5 5h2a.5.5 0 0 1 1 0z"/>
</svg>