<!--
  - Copyright (c) 2023 - All rights reserved.
  - Created by Curtis Poon for PROCTECH 4IT3/SEP 6IT3.
  - SoA Notice: I Curtis Poon, 400263978 certify that this material is my original work.
  - I certify that no other person's work has been used without due acknowledgement.
  - I have also not made my work available to anyone else without their due acknowledgement.
  -->

<svg xmlns="http://www.w3.org/2000/svg" width="16" height="16" fill="currentColor" class="bi bi-file-ruled-fill" viewBox="0 0 16 16">
  <path d="M12 0H4a2 2 0 0 0-2 2v4h12V2a2 2 0 0 0-2-2zm2 7H6v2h8V7zm0 3H6v2h8v-2zm0 3H6v3h6a2 2 0 0 0 2-2v-1zm-9 3v-3H2v1a2 2 0 0 0 2 2h1zm-3-4h3v-2H2v2zm0-3h3V7H2v2z"/>
</svg>