<!--
  - Copyright (c) 2023 - All rights reserved.
  - Created by Curtis Poon for PROCTECH 4IT3/SEP 6IT3.
  - SoA Notice: I Curtis Poon, 400263978 certify that this material is my original work.
  - I certify that no other person's work has been used without due acknowledgement.
  - I have also not made my work available to anyone else without their due acknowledgement.
  -->

<svg xmlns="http://www.w3.org/2000/svg" width="16" height="16" fill="currentColor" class="bi bi-gender-ambiguous" viewBox="0 0 16 16">
  <path fill-rule="evenodd" d="M11.5 1a.5.5 0 0 1 0-1h4a.5.5 0 0 1 .5.5v4a.5.5 0 0 1-1 0V1.707l-3.45 3.45A4 4 0 0 1 8.5 10.97V13H10a.5.5 0 0 1 0 1H8.5v1.5a.5.5 0 0 1-1 0V14H6a.5.5 0 0 1 0-1h1.5v-2.03a4 4 0 1 1 3.471-6.648L14.293 1H11.5zm-.997 4.346a3 3 0 1 0-5.006 3.309 3 3 0 0 0 5.006-3.31z"/>
</svg>