<!--
  - Copyright (c) 2023 - All rights reserved.
  - Created by Curtis Poon for PROCTECH 4IT3/SEP 6IT3.
  - SoA Notice: I Curtis Poon, 400263978 certify that this material is my original work.
  - I certify that no other person's work has been used without due acknowledgement.
  - I have also not made my work available to anyone else without their due acknowledgement.
  -->

<svg xmlns="http://www.w3.org/2000/svg" width="16" height="16" fill="currentColor" class="bi bi-graph-down-arrow" viewBox="0 0 16 16">
  <path fill-rule="evenodd" d="M0 0h1v15h15v1H0V0Zm10 11.5a.5.5 0 0 0 .5.5h4a.5.5 0 0 0 .5-.5v-4a.5.5 0 0 0-1 0v2.6l-3.613-4.417a.5.5 0 0 0-.74-.037L7.06 8.233 3.404 3.206a.5.5 0 0 0-.808.588l4 5.5a.5.5 0 0 0 .758.06l2.609-2.61L13.445 11H10.5a.5.5 0 0 0-.5.5Z"/>
</svg>