<!--
  - Copyright (c) 2023 - All rights reserved.
  - Created by Curtis Poon for PROCTECH 4IT3/SEP 6IT3.
  - SoA Notice: I Curtis Poon, 400263978 certify that this material is my original work.
  - I certify that no other person's work has been used without due acknowledgement.
  - I have also not made my work available to anyone else without their due acknowledgement.
  -->

<svg xmlns="http://www.w3.org/2000/svg" width="16" height="16" fill="currentColor" class="bi bi-hdd-stack" viewBox="0 0 16 16">
  <path d="M14 10a1 1 0 0 1 1 1v1a1 1 0 0 1-1 1H2a1 1 0 0 1-1-1v-1a1 1 0 0 1 1-1h12zM2 9a2 2 0 0 0-2 2v1a2 2 0 0 0 2 2h12a2 2 0 0 0 2-2v-1a2 2 0 0 0-2-2H2z"/>
  <path d="M5 11.5a.5.5 0 1 1-1 0 .5.5 0 0 1 1 0zm-2 0a.5.5 0 1 1-1 0 .5.5 0 0 1 1 0zM14 3a1 1 0 0 1 1 1v1a1 1 0 0 1-1 1H2a1 1 0 0 1-1-1V4a1 1 0 0 1 1-1h12zM2 2a2 2 0 0 0-2 2v1a2 2 0 0 0 2 2h12a2 2 0 0 0 2-2V4a2 2 0 0 0-2-2H2z"/>
  <path d="M5 4.5a.5.5 0 1 1-1 0 .5.5 0 0 1 1 0zm-2 0a.5.5 0 1 1-1 0 .5.5 0 0 1 1 0z"/>
</svg>