<!--
  - Copyright (c) 2023 - All rights reserved.
  - Created by Curtis Poon for PROCTECH 4IT3/SEP 6IT3.
  - SoA Notice: I Curtis Poon, 400263978 certify that this material is my original work.
  - I certify that no other person's work has been used without due acknowledgement.
  - I have also not made my work available to anyone else without their due acknowledgement.
  -->

<svg xmlns="http://www.w3.org/2000/svg" width="16" height="16" fill="currentColor" class="bi bi-hdd-network-fill" viewBox="0 0 16 16">
  <path d="M2 2a2 2 0 0 0-2 2v1a2 2 0 0 0 2 2h5.5v3A1.5 1.5 0 0 0 6 11.5H.5a.5.5 0 0 0 0 1H6A1.5 1.5 0 0 0 7.5 14h1a1.5 1.5 0 0 0 1.5-1.5h5.5a.5.5 0 0 0 0-1H10A1.5 1.5 0 0 0 8.5 10V7H14a2 2 0 0 0 2-2V4a2 2 0 0 0-2-2H2zm.5 3a.5.5 0 1 1 0-1 .5.5 0 0 1 0 1zm2 0a.5.5 0 1 1 0-1 .5.5 0 0 1 0 1z"/>
</svg>