<!--
  - Copyright (c) 2023 - All rights reserved.
  - Created by Curtis Poon for PROCTECH 4IT3/SEP 6IT3.
  - SoA Notice: I Curtis Poon, 400263978 certify that this material is my original work.
  - I certify that no other person's work has been used without due acknowledgement.
  - I have also not made my work available to anyone else without their due acknowledgement.
  -->

<svg xmlns="http://www.w3.org/2000/svg" width="16" height="16" fill="currentColor" class="bi bi-hdd-fill" viewBox="0 0 16 16">
  <path d="M0 10a2 2 0 0 1 2-2h12a2 2 0 0 1 2 2v1a2 2 0 0 1-2 2H2a2 2 0 0 1-2-2v-1zm2.5 1a.5.5 0 1 0 0-1 .5.5 0 0 0 0 1zm2 0a.5.5 0 1 0 0-1 .5.5 0 0 0 0 1zM.91 7.204A2.993 2.993 0 0 1 2 7h12c.384 0 .752.072 1.09.204l-1.867-3.422A1.5 1.5 0 0 0 11.906 3H4.094a1.5 1.5 0 0 0-1.317.782L.91 7.204z"/>
</svg>