<!--
  - Copyright (c) 2023 - All rights reserved.
  - Created by Curtis Poon for PROCTECH 4IT3/SEP 6IT3.
  - SoA Notice: I Curtis Poon, 400263978 certify that this material is my original work.
  - I certify that no other person's work has been used without due acknowledgement.
  - I have also not made my work available to anyone else without their due acknowledgement.
  -->

<svg xmlns="http://www.w3.org/2000/svg" width="16" height="16" fill="currentColor" class="bi bi-hdmi-fill" viewBox="0 0 16 16">
  <path d="M1 5a1 1 0 0 0-1 1v3.293c0 .39.317.707.707.707.188 0 .368.075.5.207l.5.5a1 1 0 0 0 .707.293h11.172a1 1 0 0 0 .707-.293l.5-.5a.707.707 0 0 1 .5-.207c.39 0 .707-.317.707-.707V6a1 1 0 0 0-1-1H1Zm1.5 2h11a.5.5 0 0 1 0 1h-11a.5.5 0 0 1 0-1Z"/>
</svg>