<!--
  - Copyright (c) 2023 - All rights reserved.
  - Created by Curtis Poon for PROCTECH 4IT3/SEP 6IT3.
  - SoA Notice: I Curtis Poon, 400263978 certify that this material is my original work.
  - I certify that no other person's work has been used without due acknowledgement.
  - I have also not made my work available to anyone else without their due acknowledgement.
  -->

<svg xmlns="http://www.w3.org/2000/svg" width="16" height="16" fill="currentColor" class="bi bi-hourglass-bottom" viewBox="0 0 16 16">
  <path d="M2 1.5a.5.5 0 0 1 .5-.5h11a.5.5 0 0 1 0 1h-1v1a4.5 4.5 0 0 1-2.557 4.06c-.29.139-.443.377-.443.59v.7c0 .213.154.451.443.59A4.5 4.5 0 0 1 12.5 13v1h1a.5.5 0 0 1 0 1h-11a.5.5 0 1 1 0-1h1v-1a4.5 4.5 0 0 1 2.557-4.06c.29-.139.443-.377.443-.59v-.7c0-.213-.154-.451-.443-.59A4.5 4.5 0 0 1 3.5 3V2h-1a.5.5 0 0 1-.5-.5zm2.5.5v1a3.5 3.5 0 0 0 1.989 3.158c.533.256 1.011.791 1.011 1.491v.702s.18.149.5.149.5-.15.5-.15v-.7c0-.701.478-1.236 1.011-1.492A3.5 3.5 0 0 0 11.5 3V2h-7z"/>
</svg>