<!--
  - Copyright (c) 2023 - All rights reserved.
  - Created by Curtis Poon for PROCTECH 4IT3/SEP 6IT3.
  - SoA Notice: I Curtis Poon, 400263978 certify that this material is my original work.
  - I certify that no other person's work has been used without due acknowledgement.
  - I have also not made my work available to anyone else without their due acknowledgement.
  -->

<svg xmlns="http://www.w3.org/2000/svg" width="16" height="16" fill="currentColor" class="bi bi-houses-fill" viewBox="0 0 16 16">
  <path d="M7.207 1a1 1 0 0 0-1.414 0L.146 6.646a.5.5 0 0 0 .708.708L1 7.207V12.5A1.5 1.5 0 0 0 2.5 14h.55a2.51 2.51 0 0 1-.05-.5V9.415a1.5 1.5 0 0 1-.56-2.475l5.353-5.354L7.207 1Z"/>
  <path d="M8.793 2a1 1 0 0 1 1.414 0L12 3.793V2.5a.5.5 0 0 1 .5-.5h1a.5.5 0 0 1 .5.5v3.293l1.854 1.853a.5.5 0 0 1-.708.708L15 8.207V13.5a1.5 1.5 0 0 1-1.5 1.5h-8A1.5 1.5 0 0 1 4 13.5V8.207l-.146.147a.5.5 0 1 1-.708-.708L8.793 2Z"/>
</svg>