<!--
  - Copyright (c) 2023 - All rights reserved.
  - Created by Curtis Poon for PROCTECH 4IT3/SEP 6IT3.
  - SoA Notice: I Curtis Poon, 400263978 certify that this material is my original work.
  - I certify that no other person's work has been used without due acknowledgement.
  - I have also not made my work available to anyone else without their due acknowledgement.
  -->

<svg xmlns="http://www.w3.org/2000/svg" width="16" height="16" fill="currentColor" class="bi bi-hr" viewBox="0 0 16 16">
  <path d="M12 3H4a1 1 0 0 0-1 1v2.5H2V4a2 2 0 0 1 2-2h8a2 2 0 0 1 2 2v2.5h-1V4a1 1 0 0 0-1-1zM2 9.5h1V12a1 1 0 0 0 1 1h8a1 1 0 0 0 1-1V9.5h1V12a2 2 0 0 1-2 2H4a2 2 0 0 1-2-2V9.5zm-1.5-2a.5.5 0 0 0 0 1h15a.5.5 0 0 0 0-1H.5z"/>
</svg>