<!--
  - Copyright (c) 2023 - All rights reserved.
  - Created by Curtis Poon for PROCTECH 4IT3/SEP 6IT3.
  - SoA Notice: I Curtis Poon, 400263978 certify that this material is my original work.
  - I certify that no other person's work has been used without due acknowledgement.
  - I have also not made my work available to anyone else without their due acknowledgement.
  -->

<svg xmlns="http://www.w3.org/2000/svg" width="16" height="16" fill="currentColor" class="bi bi-hurricane" viewBox="0 0 16 16">
  <path d="M6.999 2.6A5.5 5.5 0 0 1 15 7.5a.5.5 0 0 0 1 0 6.5 6.5 0 1 0-13 0 5 5 0 0 0 6.001 4.9A5.5 5.5 0 0 1 1 7.5a.5.5 0 0 0-1 0 6.5 6.5 0 1 0 13 0 5 5 0 0 0-6.001-4.9zM10 7.5a2 2 0 1 1-4 0 2 2 0 0 1 4 0z"/>
</svg>