<!--
  - Copyright (c) 2023 - All rights reserved.
  - Created by Curtis Poon for PROCTECH 4IT3/SEP 6IT3.
  - SoA Notice: I Curtis Poon, 400263978 certify that this material is my original work.
  - I certify that no other person's work has been used without due acknowledgement.
  - I have also not made my work available to anyone else without their due acknowledgement.
  -->

<svg xmlns="http://www.w3.org/2000/svg" width="16" height="16" fill="currentColor" class="bi bi-layers-fill" viewBox="0 0 16 16">
  <path d="M7.765 1.559a.5.5 0 0 1 .47 0l7.5 4a.5.5 0 0 1 0 .882l-7.5 4a.5.5 0 0 1-.47 0l-7.5-4a.5.5 0 0 1 0-.882l7.5-4z"/>
  <path d="m2.125 8.567-1.86.992a.5.5 0 0 0 0 .882l7.5 4a.5.5 0 0 0 .47 0l7.5-4a.5.5 0 0 0 0-.882l-1.86-.992-5.17 2.756a1.5 1.5 0 0 1-1.41 0l-5.17-2.756z"/>
</svg>