<!--
  - Copyright (c) 2023 - All rights reserved.
  - Created by Curtis Poon for PROCTECH 4IT3/SEP 6IT3.
  - SoA Notice: I Curtis Poon, 400263978 certify that this material is my original work.
  - I certify that no other person's work has been used without due acknowledgement.
  - I have also not made my work available to anyone else without their due acknowledgement.
  -->

<svg xmlns="http://www.w3.org/2000/svg" width="16" height="16" fill="currentColor" class="bi bi-layout-text-sidebar-reverse" viewBox="0 0 16 16">
  <path d="M12.5 3a.5.5 0 0 1 0 1h-5a.5.5 0 0 1 0-1h5zm0 3a.5.5 0 0 1 0 1h-5a.5.5 0 0 1 0-1h5zm.5 3.5a.5.5 0 0 0-.5-.5h-5a.5.5 0 0 0 0 1h5a.5.5 0 0 0 .5-.5zm-.5 2.5a.5.5 0 0 1 0 1h-5a.5.5 0 0 1 0-1h5z"/>
  <path d="M16 2a2 2 0 0 0-2-2H2a2 2 0 0 0-2 2v12a2 2 0 0 0 2 2h12a2 2 0 0 0 2-2V2zM4 1v14H2a1 1 0 0 1-1-1V2a1 1 0 0 1 1-1h2zm1 0h9a1 1 0 0 1 1 1v12a1 1 0 0 1-1 1H5V1z"/>
</svg>