<!--
  - Copyright (c) 2023 - All rights reserved.
  - Created by Curtis Poon for PROCTECH 4IT3/SEP 6IT3.
  - SoA Notice: I Curtis Poon, 400263978 certify that this material is my original work.
  - I certify that no other person's work has been used without due acknowledgement.
  - I have also not made my work available to anyone else without their due acknowledgement.
  -->

<svg xmlns="http://www.w3.org/2000/svg" width="16" height="16" fill="currentColor" class="bi bi-link" viewBox="0 0 16 16">
  <path d="M6.354 5.5H4a3 3 0 0 0 0 6h3a3 3 0 0 0 2.83-4H9c-.086 0-.17.01-.25.031A2 2 0 0 1 7 10.5H4a2 2 0 1 1 0-4h1.535c.218-.376.495-.714.82-1z"/>
  <path d="M9 5.5a3 3 0 0 0-2.83 4h1.098A2 2 0 0 1 9 6.5h3a2 2 0 1 1 0 4h-1.535a4.02 4.02 0 0 1-.82 1H12a3 3 0 1 0 0-6H9z"/>
</svg>