<!--
  - Copyright (c) 2023 - All rights reserved.
  - Created by Curtis Poon for PROCTECH 4IT3/SEP 6IT3.
  - SoA Notice: I Curtis Poon, 400263978 certify that this material is my original work.
  - I certify that no other person's work has been used without due acknowledgement.
  - I have also not made my work available to anyone else without their due acknowledgement.
  -->

<svg xmlns="http://www.w3.org/2000/svg" width="16" height="16" fill="currentColor" class="bi bi-motherboard-fill" viewBox="0 0 16 16">
  <path d="M5 7h3V4H5v3Z"/>
  <path d="M1 2a2 2 0 0 1 2-2h11a2 2 0 0 1 2 2v11a2 2 0 0 1-2 2H3a2 2 0 0 1-2-2v-2H.5a.5.5 0 0 1-.5-.5v-1A.5.5 0 0 1 .5 9H1V8H.5a.5.5 0 0 1-.5-.5v-1A.5.5 0 0 1 .5 6H1V5H.5a.5.5 0 0 1-.5-.5v-2A.5.5 0 0 1 .5 2H1Zm11 .5a.5.5 0 0 0-1 0v7a.5.5 0 0 0 1 0v-7Zm2 0a.5.5 0 0 0-1 0v7a.5.5 0 0 0 1 0v-7ZM3.5 10a.5.5 0 0 0 0 1h6a.5.5 0 0 0 0-1h-6Zm0 2a.5.5 0 0 0 0 1h6a.5.5 0 0 0 0-1h-6ZM4 4h-.5a.5.5 0 0 0 0 1H4v1h-.5a.5.5 0 0 0 0 1H4a1 1 0 0 0 1 1v.5a.5.5 0 0 0 1 0V8h1v.5a.5.5 0 0 0 1 0V8a1 1 0 0 0 1-1h.5a.5.5 0 0 0 0-1H9V5h.5a.5.5 0 0 0 0-1H9a1 1 0 0 0-1-1v-.5a.5.5 0 0 0-1 0V3H6v-.5a.5.5 0 0 0-1 0V3a1 1 0 0 0-1 1Zm7 7.5v1a.5.5 0 0 0 .5.5h2a.5.5 0 0 0 .5-.5v-1a.5.5 0 0 0-.5-.5h-2a.5.5 0 0 0-.5.5Z"/>
</svg>