<!--
  - Copyright (c) 2023 - All rights reserved.
  - Created by Curtis Poon for PROCTECH 4IT3/SEP 6IT3.
  - SoA Notice: I Curtis Poon, 400263978 certify that this material is my original work.
  - I certify that no other person's work has been used without due acknowledgement.
  - I have also not made my work available to anyone else without their due acknowledgement.
  -->

<svg xmlns="http://www.w3.org/2000/svg" width="16" height="16" fill="currentColor" class="bi bi-mouse" viewBox="0 0 16 16">
  <path d="M8 3a.5.5 0 0 1 .5.5v2a.5.5 0 0 1-1 0v-2A.5.5 0 0 1 8 3zm4 8a4 4 0 0 1-8 0V5a4 4 0 1 1 8 0v6zM8 0a5 5 0 0 0-5 5v6a5 5 0 0 0 10 0V5a5 5 0 0 0-5-5z"/>
</svg>