<!--
  - Copyright (c) 2023 - All rights reserved.
  - Created by Curtis Poon for PROCTECH 4IT3/SEP 6IT3.
  - SoA Notice: I Curtis Poon, 400263978 certify that this material is my original work.
  - I certify that no other person's work has been used without due acknowledgement.
  - I have also not made my work available to anyone else without their due acknowledgement.
  -->

<svg xmlns="http://www.w3.org/2000/svg" width="16" height="16" fill="currentColor" class="bi bi-node-minus-fill" viewBox="0 0 16 16">
  <path fill-rule="evenodd" d="M16 8a5 5 0 0 1-9.975.5H4A1.5 1.5 0 0 1 2.5 10h-1A1.5 1.5 0 0 1 0 8.5v-1A1.5 1.5 0 0 1 1.5 6h1A1.5 1.5 0 0 1 4 7.5h2.025A5 5 0 0 1 16 8zm-2 0a.5.5 0 0 0-.5-.5h-5a.5.5 0 0 0 0 1h5A.5.5 0 0 0 14 8z"/>
</svg>