<!--
  - Copyright (c) 2023 - All rights reserved.
  - Created by Curtis Poon for PROCTECH 4IT3/SEP 6IT3.
  - SoA Notice: I Curtis Poon, 400263978 certify that this material is my original work.
  - I certify that no other person's work has been used without due acknowledgement.
  - I have also not made my work available to anyone else without their due acknowledgement.
  -->

<svg xmlns="http://www.w3.org/2000/svg" width="16" height="16" fill="currentColor" class="bi bi-node-plus-fill" viewBox="0 0 16 16">
  <path d="M11 13a5 5 0 1 0-4.975-5.5H4A1.5 1.5 0 0 0 2.5 6h-1A1.5 1.5 0 0 0 0 7.5v1A1.5 1.5 0 0 0 1.5 10h1A1.5 1.5 0 0 0 4 8.5h2.025A5 5 0 0 0 11 13zm.5-7.5v2h2a.5.5 0 0 1 0 1h-2v2a.5.5 0 0 1-1 0v-2h-2a.5.5 0 0 1 0-1h2v-2a.5.5 0 0 1 1 0z"/>
</svg>