<!--
  - Copyright (c) 2023 - All rights reserved.
  - Created by Curtis Poon for PROCTECH 4IT3/SEP 6IT3.
  - SoA Notice: I Curtis Poon, 400263978 certify that this material is my original work.
  - I certify that no other person's work has been used without due acknowledgement.
  - I have also not made my work available to anyone else without their due acknowledgement.
  -->

<svg xmlns="http://www.w3.org/2000/svg" width="16" height="16" fill="currentColor" class="bi bi-paperclip" viewBox="0 0 16 16">
  <path d="M4.5 3a2.5 2.5 0 0 1 5 0v9a1.5 1.5 0 0 1-3 0V5a.5.5 0 0 1 1 0v7a.5.5 0 0 0 1 0V3a1.5 1.5 0 1 0-3 0v9a2.5 2.5 0 0 0 5 0V5a.5.5 0 0 1 1 0v7a3.5 3.5 0 1 1-7 0V3z"/>
</svg>