<!--
  - Copyright (c) 2023 - All rights reserved.
  - Created by Curtis Poon for PROCTECH 4IT3/SEP 6IT3.
  - SoA Notice: I Curtis Poon, 400263978 certify that this material is my original work.
  - I certify that no other person's work has been used without due acknowledgement.
  - I have also not made my work available to anyone else without their due acknowledgement.
  -->

<svg xmlns="http://www.w3.org/2000/svg" width="16" height="16" fill="currentColor" class="bi bi-pc-horizontal" viewBox="0 0 16 16">
  <path d="M1 6a1 1 0 0 0-1 1v3a1 1 0 0 0 1 1h14a1 1 0 0 0 1-1V7a1 1 0 0 0-1-1H1Zm11.5 1a.5.5 0 1 1 0 1 .5.5 0 0 1 0-1Zm2 0a.5.5 0 1 1 0 1 .5.5 0 0 1 0-1ZM1 7.5a.5.5 0 0 1 .5-.5h5a.5.5 0 0 1 0 1h-5a.5.5 0 0 1-.5-.5ZM1.25 9h5.5a.25.25 0 0 1 0 .5h-5.5a.25.25 0 0 1 0-.5Z"/>
</svg>