<!--
  - Copyright (c) 2023 - All rights reserved.
  - Created by Curtis Poon for PROCTECH 4IT3/SEP 6IT3.
  - SoA Notice: I Curtis Poon, 400263978 certify that this material is my original work.
  - I certify that no other person's work has been used without due acknowledgement.
  - I have also not made my work available to anyone else without their due acknowledgement.
  -->

<svg xmlns="http://www.w3.org/2000/svg" width="16" height="16" fill="currentColor" class="bi bi-person-workspace" viewBox="0 0 16 16">
  <path d="M4 16s-1 0-1-1 1-4 5-4 5 3 5 4-1 1-1 1H4Zm4-5.95a2.5 2.5 0 1 0 0-5 2.5 2.5 0 0 0 0 5Z"/>
  <path d="M2 1a2 2 0 0 0-2 2v9.5A1.5 1.5 0 0 0 1.5 14h.653a5.373 5.373 0 0 1 1.066-2H1V3a1 1 0 0 1 1-1h12a1 1 0 0 1 1 1v9h-2.219c.554.654.89 1.373 1.066 2h.653a1.5 1.5 0 0 0 1.5-1.5V3a2 2 0 0 0-2-2H2Z"/>
</svg>