<!--
  - Copyright (c) 2023 - All rights reserved.
  - Created by Curtis Poon for PROCTECH 4IT3/SEP 6IT3.
  - SoA Notice: I Curtis Poon, 400263978 certify that this material is my original work.
  - I certify that no other person's work has been used without due acknowledgement.
  - I have also not made my work available to anyone else without their due acknowledgement.
  -->

<svg xmlns="http://www.w3.org/2000/svg" width="16" height="16" fill="currentColor" class="bi bi-person-video3" viewBox="0 0 16 16">
  <path d="M14 9.5a2 2 0 1 1-4 0 2 2 0 0 1 4 0Zm-6 5.7c0 .8.8.8.8.8h6.4s.8 0 .8-.8-.8-3.2-4-3.2-4 2.4-4 3.2Z"/>
  <path d="M2 2a2 2 0 0 0-2 2v8a2 2 0 0 0 2 2h5.243c.122-.326.295-.668.526-1H2a1 1 0 0 1-1-1V4a1 1 0 0 1 1-1h12a1 1 0 0 1 1 1v7.81c.353.23.656.496.91.783.059-.187.09-.386.09-.593V4a2 2 0 0 0-2-2H2Z"/>
</svg>