<!--
  - Copyright (c) 2023 - All rights reserved.
  - Created by Curtis Poon for PROCTECH 4IT3/SEP 6IT3.
  - SoA Notice: I Curtis Poon, 400263978 certify that this material is my original work.
  - I certify that no other person's work has been used without due acknowledgement.
  - I have also not made my work available to anyone else without their due acknowledgement.
  -->

<svg xmlns="http://www.w3.org/2000/svg" width="16" height="16" fill="currentColor" class="bi bi-person-square" viewBox="0 0 16 16">
  <path d="M11 6a3 3 0 1 1-6 0 3 3 0 0 1 6 0z"/>
  <path d="M2 0a2 2 0 0 0-2 2v12a2 2 0 0 0 2 2h12a2 2 0 0 0 2-2V2a2 2 0 0 0-2-2H2zm12 1a1 1 0 0 1 1 1v12a1 1 0 0 1-1 1v-1c0-1-1-4-6-4s-6 3-6 4v1a1 1 0 0 1-1-1V2a1 1 0 0 1 1-1h12z"/>
</svg>