<!--
  - Copyright (c) 2023 - All rights reserved.
  - Created by Curtis Poon for PROCTECH 4IT3/SEP 6IT3.
  - SoA Notice: I Curtis Poon, 400263978 certify that this material is my original work.
  - I certify that no other person's work has been used without due acknowledgement.
  - I have also not made my work available to anyone else without their due acknowledgement.
  -->

<svg xmlns="http://www.w3.org/2000/svg" width="16" height="16" fill="currentColor" class="bi bi-pin-fill" viewBox="0 0 16 16">
  <path d="M4.146.146A.5.5 0 0 1 4.5 0h7a.5.5 0 0 1 .5.5c0 .68-.342 1.174-.646 1.479-.126.125-.25.224-.354.298v4.431l.078.048c.203.127.476.314.751.555C12.36 7.775 13 8.527 13 9.5a.5.5 0 0 1-.5.5h-4v4.5c0 .276-.224 1.5-.5 1.5s-.5-1.224-.5-1.5V10h-4a.5.5 0 0 1-.5-.5c0-.973.64-1.725 1.17-2.189A5.921 5.921 0 0 1 5 6.708V2.277a2.77 2.77 0 0 1-.354-.298C4.342 1.674 4 1.179 4 .5a.5.5 0 0 1 .146-.354z"/>
</svg>