<!--
  - Copyright (c) 2023 - All rights reserved.
  - Created by Curtis Poon for PROCTECH 4IT3/SEP 6IT3.
  - SoA Notice: I Curtis Poon, 400263978 certify that this material is my original work.
  - I certify that no other person's work has been used without due acknowledgement.
  - I have also not made my work available to anyone else without their due acknowledgement.
  -->

<svg xmlns="http://www.w3.org/2000/svg" width="16" height="16" fill="currentColor" class="bi bi-plugin" viewBox="0 0 16 16">
  <path fill-rule="evenodd" d="M1 8a7 7 0 1 1 2.898 5.673c-.167-.121-.216-.406-.002-.62l1.8-1.8a3.5 3.5 0 0 0 4.572-.328l1.414-1.415a.5.5 0 0 0 0-.707l-.707-.707 1.559-1.563a.5.5 0 1 0-.708-.706l-1.559 1.562-1.414-1.414 1.56-1.562a.5.5 0 1 0-.707-.706l-1.56 1.56-.707-.706a.5.5 0 0 0-.707 0L5.318 5.975a3.5 3.5 0 0 0-.328 4.571l-1.8 1.8c-.58.58-.62 1.6.121 2.137A8 8 0 1 0 0 8a.5.5 0 0 0 1 0Z"/>
</svg>