<!--
  - Copyright (c) 2023 - All rights reserved.
  - Created by Curtis Poon for PROCTECH 4IT3/SEP 6IT3.
  - SoA Notice: I Curtis Poon, 400263978 certify that this material is my original work.
  - I certify that no other person's work has been used without due acknowledgement.
  - I have also not made my work available to anyone else without their due acknowledgement.
  -->

<svg xmlns="http://www.w3.org/2000/svg" width="16" height="16" fill="currentColor" class="bi bi-projector-fill" viewBox="0 0 16 16">
  <path d="M2 4a2 2 0 0 0-2 2v3a2 2 0 0 0 2 2 1 1 0 0 0 1 1h1a1 1 0 0 0 1-1h6a1 1 0 0 0 1 1h1a1 1 0 0 0 1-1 2 2 0 0 0 2-2V6a2 2 0 0 0-2-2H2Zm.5 2h4a.5.5 0 0 1 0 1h-4a.5.5 0 0 1 0-1ZM14 7.5a1.5 1.5 0 1 1-3 0 1.5 1.5 0 0 1 3 0Zm-12 1a.5.5 0 0 1 .5-.5h4a.5.5 0 0 1 0 1h-4a.5.5 0 0 1-.5-.5Z"/>
</svg>