<!--
  - Copyright (c) 2023 - All rights reserved.
  - Created by Curtis Poon for PROCTECH 4IT3/SEP 6IT3.
  - SoA Notice: I Curtis Poon, 400263978 certify that this material is my original work.
  - I certify that no other person's work has been used without due acknowledgement.
  - I have also not made my work available to anyone else without their due acknowledgement.
  -->

<svg xmlns="http://www.w3.org/2000/svg" width="16" height="16" fill="currentColor" class="bi bi-regex" viewBox="0 0 16 16">
  <path fill-rule="evenodd" d="M3.05 3.05a7 7 0 0 0 0 9.9.5.5 0 0 1-.707.707 8 8 0 0 1 0-11.314.5.5 0 1 1 .707.707Zm9.9-.707a.5.5 0 0 1 .707 0 8 8 0 0 1 0 11.314.5.5 0 0 1-.707-.707 7 7 0 0 0 0-9.9.5.5 0 0 1 0-.707ZM6 11a1 1 0 1 1-2 0 1 1 0 0 1 2 0Zm5-6.5a.5.5 0 0 0-1 0v2.117L8.257 5.57a.5.5 0 0 0-.514.858L9.528 7.5 7.743 8.571a.5.5 0 1 0 .514.858L10 8.383V10.5a.5.5 0 1 0 1 0V8.383l1.743 1.046a.5.5 0 0 0 .514-.858L11.472 7.5l1.785-1.071a.5.5 0 1 0-.514-.858L11 6.617V4.5Z"/>
</svg>