<!--
  - Copyright (c) 2023 - All rights reserved.
  - Created by Curtis Poon for PROCTECH 4IT3/SEP 6IT3.
  - SoA Notice: I Curtis Poon, 400263978 certify that this material is my original work.
  - I certify that no other person's work has been used without due acknowledgement.
  - I have also not made my work available to anyone else without their due acknowledgement.
  -->

<svg xmlns="http://www.w3.org/2000/svg" width="16" height="16" fill="currentColor" class="bi bi-rewind-btn" viewBox="0 0 16 16">
  <path d="M7.21 5.093A.5.5 0 0 1 8 5.5v1.886l3.21-2.293A.5.5 0 0 1 12 5.5v5a.5.5 0 0 1-.79.407L8 8.614V10.5a.5.5 0 0 1-.79.407l-3.5-2.5a.5.5 0 0 1 0-.814l3.5-2.5Z"/>
  <path d="M0 4a2 2 0 0 1 2-2h12a2 2 0 0 1 2 2v8a2 2 0 0 1-2 2H2a2 2 0 0 1-2-2V4Zm15 0a1 1 0 0 0-1-1H2a1 1 0 0 0-1 1v8a1 1 0 0 0 1 1h12a1 1 0 0 0 1-1V4Z"/>
</svg>