<!--
  - Copyright (c) 2023 - All rights reserved.
  - Created by Curtis Poon for PROCTECH 4IT3/SEP 6IT3.
  - SoA Notice: I Curtis Poon, 400263978 certify that this material is my original work.
  - I certify that no other person's work has been used without due acknowledgement.
  - I have also not made my work available to anyone else without their due acknowledgement.
  -->

<svg xmlns="http://www.w3.org/2000/svg" width="16" height="16" fill="currentColor" class="bi bi-rulers" viewBox="0 0 16 16">
  <path d="M1 0a1 1 0 0 0-1 1v14a1 1 0 0 0 1 1h5v-1H2v-1h4v-1H4v-1h2v-1H2v-1h4V9H4V8h2V7H2V6h4V2h1v4h1V4h1v2h1V2h1v4h1V4h1v2h1V2h1v4h1V1a1 1 0 0 0-1-1H1z"/>
</svg>