<!--
  - Copyright (c) 2023 - All rights reserved.
  - Created by Curtis Poon for PROCTECH 4IT3/SEP 6IT3.
  - SoA Notice: I Curtis Poon, 400263978 certify that this material is my original work.
  - I certify that no other person's work has been used without due acknowledgement.
  - I have also not made my work available to anyone else without their due acknowledgement.
  -->

<svg xmlns="http://www.w3.org/2000/svg" width="16" height="16" fill="currentColor" class="bi bi-signpost" viewBox="0 0 16 16">
  <path d="M7 1.414V4H2a1 1 0 0 0-1 1v4a1 1 0 0 0 1 1h5v6h2v-6h3.532a1 1 0 0 0 .768-.36l1.933-2.32a.5.5 0 0 0 0-.64L13.3 4.36a1 1 0 0 0-.768-.36H9V1.414a1 1 0 0 0-2 0zM12.532 5l1.666 2-1.666 2H2V5h10.532z"/>
</svg>