<!--
  - Copyright (c) 2023 - All rights reserved.
  - Created by Curtis Poon for PROCTECH 4IT3/SEP 6IT3.
  - SoA Notice: I Curtis Poon, 400263978 certify that this material is my original work.
  - I certify that no other person's work has been used without due acknowledgement.
  - I have also not made my work available to anyone else without their due acknowledgement.
  -->

<svg xmlns="http://www.w3.org/2000/svg" width="16" height="16" fill="currentColor" class="bi bi-skip-forward-circle-fill" viewBox="0 0 16 16">
  <path d="M16 8A8 8 0 1 1 0 8a8 8 0 0 1 16 0zM4.79 5.093A.5.5 0 0 0 4 5.5v5a.5.5 0 0 0 .79.407L7.5 8.972V10.5a.5.5 0 0 0 .79.407L11 8.972V10.5a.5.5 0 0 0 1 0v-5a.5.5 0 0 0-1 0v1.528L8.29 5.093a.5.5 0 0 0-.79.407v1.528L4.79 5.093z"/>
</svg>