<!--
  - Copyright (c) 2023 - All rights reserved.
  - Created by Curtis Poon for PROCTECH 4IT3/SEP 6IT3.
  - SoA Notice: I Curtis Poon, 400263978 certify that this material is my original work.
  - I certify that no other person's work has been used without due acknowledgement.
  - I have also not made my work available to anyone else without their due acknowledgement.
  -->

<svg xmlns="http://www.w3.org/2000/svg" width="16" height="16" fill="currentColor" class="bi bi-skip-start-btn-fill" viewBox="0 0 16 16">
  <path d="M0 12V4a2 2 0 0 1 2-2h12a2 2 0 0 1 2 2v8a2 2 0 0 1-2 2H2a2 2 0 0 1-2-2zm9.71-6.907L7 7.028V5.5a.5.5 0 0 0-1 0v5a.5.5 0 0 0 1 0V8.972l2.71 1.935a.5.5 0 0 0 .79-.407v-5a.5.5 0 0 0-.79-.407z"/>
</svg>