<!--
  - Copyright (c) 2023 - All rights reserved.
  - Created by Curtis Poon for PROCTECH 4IT3/SEP 6IT3.
  - SoA Notice: I Curtis Poon, 400263978 certify that this material is my original work.
  - I certify that no other person's work has been used without due acknowledgement.
  - I have also not made my work available to anyone else without their due acknowledgement.
  -->

<svg xmlns="http://www.w3.org/2000/svg" width="16" height="16" fill="currentColor" class="bi bi-sliders2" viewBox="0 0 16 16">
  <path fill-rule="evenodd" d="M10.5 1a.5.5 0 0 1 .5.5v4a.5.5 0 0 1-1 0V4H1.5a.5.5 0 0 1 0-1H10V1.5a.5.5 0 0 1 .5-.5ZM12 3.5a.5.5 0 0 1 .5-.5h2a.5.5 0 0 1 0 1h-2a.5.5 0 0 1-.5-.5Zm-6.5 2A.5.5 0 0 1 6 6v1.5h8.5a.5.5 0 0 1 0 1H6V10a.5.5 0 0 1-1 0V6a.5.5 0 0 1 .5-.5ZM1 8a.5.5 0 0 1 .5-.5h2a.5.5 0 0 1 0 1h-2A.5.5 0 0 1 1 8Zm9.5 2a.5.5 0 0 1 .5.5v4a.5.5 0 0 1-1 0V13H1.5a.5.5 0 0 1 0-1H10v-1.5a.5.5 0 0 1 .5-.5Zm1.5 2.5a.5.5 0 0 1 .5-.5h2a.5.5 0 0 1 0 1h-2a.5.5 0 0 1-.5-.5Z"/>
</svg>