<!--
  - Copyright (c) 2023 - All rights reserved.
  - Created by Curtis Poon for PROCTECH 4IT3/SEP 6IT3.
  - SoA Notice: I Curtis Poon, 400263978 certify that this material is my original work.
  - I certify that no other person's work has been used without due acknowledgement.
  - I have also not made my work available to anyone else without their due acknowledgement.
  -->

<svg xmlns="http://www.w3.org/2000/svg" width="16" height="16" fill="currentColor" class="bi bi-speaker-fill" viewBox="0 0 16 16">
  <path d="M9 4a1 1 0 1 1-2 0 1 1 0 0 1 2 0zm-2.5 6.5a1.5 1.5 0 1 1 3 0 1.5 1.5 0 0 1-3 0z"/>
  <path d="M4 0a2 2 0 0 0-2 2v12a2 2 0 0 0 2 2h8a2 2 0 0 0 2-2V2a2 2 0 0 0-2-2H4zm6 4a2 2 0 1 1-4 0 2 2 0 0 1 4 0zM8 7a3.5 3.5 0 1 1 0 7 3.5 3.5 0 0 1 0-7z"/>
</svg>