<!--
  - Copyright (c) 2023 - All rights reserved.
  - Created by Curtis Poon for PROCTECH 4IT3/SEP 6IT3.
  - SoA Notice: I Curtis Poon, 400263978 certify that this material is my original work.
  - I certify that no other person's work has been used without due acknowledgement.
  - I have also not made my work available to anyone else without their due acknowledgement.
  -->

<svg xmlns="http://www.w3.org/2000/svg" width="16" height="16" fill="currentColor" class="bi bi-suit-diamond" viewBox="0 0 16 16">
  <path d="M8.384 1.226a.463.463 0 0 0-.768 0l-4.56 6.468a.537.537 0 0 0 0 .612l4.56 6.469a.463.463 0 0 0 .768 0l4.56-6.469a.537.537 0 0 0 0-.612l-4.56-6.468zM6.848.613a1.39 1.39 0 0 1 2.304 0l4.56 6.468a1.61 1.61 0 0 1 0 1.838l-4.56 6.468a1.39 1.39 0 0 1-2.304 0L2.288 8.92a1.61 1.61 0 0 1 0-1.838L6.848.613z"/>
</svg>