<!--
  - Copyright (c) 2023 - All rights reserved.
  - Created by Curtis Poon for PROCTECH 4IT3/SEP 6IT3.
  - SoA Notice: I Curtis Poon, 400263978 certify that this material is my original work.
  - I certify that no other person's work has been used without due acknowledgement.
  - I have also not made my work available to anyone else without their due acknowledgement.
  -->

<svg xmlns="http://www.w3.org/2000/svg" width="16" height="16" fill="currentColor" class="bi bi-text-wrap" viewBox="0 0 16 16">
  <path fill-rule="evenodd" d="M2 3.5a.5.5 0 0 1 .5-.5h11a.5.5 0 0 1 0 1h-11a.5.5 0 0 1-.5-.5Zm0 4a.5.5 0 0 1 .5-.5h9a2.5 2.5 0 0 1 0 5h-1.293l.647.646a.5.5 0 0 1-.708.708l-1.5-1.5a.5.5 0 0 1 0-.708l1.5-1.5a.5.5 0 0 1 .708.708l-.647.646H11.5a1.5 1.5 0 0 0 0-3h-9a.5.5 0 0 1-.5-.5Zm0 4a.5.5 0 0 1 .5-.5H7a.5.5 0 0 1 0 1H2.5a.5.5 0 0 1-.5-.5Z"/>
</svg>