<!--
  - Copyright (c) 2023 - All rights reserved.
  - Created by Curtis Poon for PROCTECH 4IT3/SEP 6IT3.
  - SoA Notice: I Curtis Poon, 400263978 certify that this material is my original work.
  - I certify that no other person's work has been used without due acknowledgement.
  - I have also not made my work available to anyone else without their due acknowledgement.
  -->

<svg xmlns="http://www.w3.org/2000/svg" width="16" height="16" fill="currentColor" class="bi bi-textarea" viewBox="0 0 16 16">
  <path d="M1.5 2.5A1.5 1.5 0 0 1 3 1h10a1.5 1.5 0 0 1 1.5 1.5v3.563a2 2 0 0 1 0 3.874V13.5A1.5 1.5 0 0 1 13 15H3a1.5 1.5 0 0 1-1.5-1.5V9.937a2 2 0 0 1 0-3.874V2.5zm1 3.563a2 2 0 0 1 0 3.874V13.5a.5.5 0 0 0 .5.5h10a.5.5 0 0 0 .5-.5V9.937a2 2 0 0 1 0-3.874V2.5A.5.5 0 0 0 13 2H3a.5.5 0 0 0-.5.5v3.563zM2 7a1 1 0 1 0 0 2 1 1 0 0 0 0-2zm12 0a1 1 0 1 0 0 2 1 1 0 0 0 0-2z"/>
</svg>