<!--
  - Copyright (c) 2023 - All rights reserved.
  - Created by Curtis Poon for PROCTECH 4IT3/SEP 6IT3.
  - SoA Notice: I Curtis Poon, 400263978 certify that this material is my original work.
  - I certify that no other person's work has been used without due acknowledgement.
  - I have also not made my work available to anyone else without their due acknowledgement.
  -->

<svg xmlns="http://www.w3.org/2000/svg" width="16" height="16" fill="currentColor" class="bi bi-thermometer" viewBox="0 0 16 16">
  <path d="M8 14a1.5 1.5 0 1 0 0-3 1.5 1.5 0 0 0 0 3z"/>
  <path d="M8 0a2.5 2.5 0 0 0-2.5 2.5v7.55a3.5 3.5 0 1 0 5 0V2.5A2.5 2.5 0 0 0 8 0zM6.5 2.5a1.5 1.5 0 1 1 3 0v7.987l.167.15a2.5 2.5 0 1 1-3.333 0l.166-.15V2.5z"/>
</svg>