<!--
  - Copyright (c) 2023 - All rights reserved.
  - Created by Curtis Poon for PROCTECH 4IT3/SEP 6IT3.
  - SoA Notice: I Curtis Poon, 400263978 certify that this material is my original work.
  - I certify that no other person's work has been used without due acknowledgement.
  - I have also not made my work available to anyone else without their due acknowledgement.
  -->

<svg xmlns="http://www.w3.org/2000/svg" width="16" height="16" fill="currentColor" class="bi bi-thunderbolt" viewBox="0 0 16 16">
  <path d="M3.5 7a.5.5 0 0 0-.5.5v1a.5.5 0 0 0 .5.5h9a.5.5 0 0 0 .5-.5v-1a.5.5 0 0 0-.5-.5h-9Z"/>
  <path d="M1 3a1 1 0 0 0-1 1v7.293A1 1 0 0 0 .293 12L2 13.707a1 1 0 0 0 .707.293h10.586a1 1 0 0 0 .707-.293L15.707 12a1 1 0 0 0 .293-.707V4a1 1 0 0 0-1-1H1Zm0 1h14v7.293L13.293 13H2.707L1 11.293V4Z"/>
</svg>