<!--
  - Copyright (c) 2023 - All rights reserved.
  - Created by Curtis Poon for PROCTECH 4IT3/SEP 6IT3.
  - SoA Notice: I Curtis Poon, 400263978 certify that this material is my original work.
  - I certify that no other person's work has been used without due acknowledgement.
  - I have also not made my work available to anyone else without their due acknowledgement.
  -->

<svg xmlns="http://www.w3.org/2000/svg" width="16" height="16" fill="currentColor" class="bi bi-toggle-off" viewBox="0 0 16 16">
  <path d="M11 4a4 4 0 0 1 0 8H8a4.992 4.992 0 0 0 2-4 4.992 4.992 0 0 0-2-4h3zm-6 8a4 4 0 1 1 0-8 4 4 0 0 1 0 8zM0 8a5 5 0 0 0 5 5h6a5 5 0 0 0 0-10H5a5 5 0 0 0-5 5z"/>
</svg>