<!--
  - Copyright (c) 2023 - All rights reserved.
  - Created by Curtis Poon for PROCTECH 4IT3/SEP 6IT3.
  - SoA Notice: I Curtis Poon, 400263978 certify that this material is my original work.
  - I certify that no other person's work has been used without due acknowledgement.
  - I have also not made my work available to anyone else without their due acknowledgement.
  -->

<svg xmlns="http://www.w3.org/2000/svg" width="16" height="16" fill="currentColor" class="bi bi-tropical-storm" viewBox="0 0 16 16">
  <path d="M8 9.5a2 2 0 1 0 0-4 2 2 0 0 0 0 4z"/>
  <path d="M9.5 2c-.9 0-1.75.216-2.501.6A5 5 0 0 1 13 7.5a6.5 6.5 0 1 1-13 0 .5.5 0 0 1 1 0 5.5 5.5 0 0 0 8.001 4.9A5 5 0 0 1 3 7.5a6.5 6.5 0 0 1 13 0 .5.5 0 0 1-1 0A5.5 5.5 0 0 0 9.5 2zM8 3.5a4 4 0 1 0 0 8 4 4 0 0 0 0-8z"/>
</svg>