<!--
  - Copyright (c) 2023 - All rights reserved.
  - Created by Curtis Poon for PROCTECH 4IT3/SEP 6IT3.
  - SoA Notice: I Curtis Poon, 400263978 certify that this material is my original work.
  - I certify that no other person's work has been used without due acknowledgement.
  - I have also not made my work available to anyone else without their due acknowledgement.
  -->

<svg xmlns="http://www.w3.org/2000/svg" width="16" height="16" fill="currentColor" class="bi bi-ui-radios-grid" viewBox="0 0 16 16">
  <path d="M3.5 15a2.5 2.5 0 1 0 0-5 2.5 2.5 0 0 0 0 5zm9-9a2.5 2.5 0 1 0 0-5 2.5 2.5 0 0 0 0 5zm0 9a2.5 2.5 0 1 1 0-5 2.5 2.5 0 0 1 0 5zM16 3.5a3.5 3.5 0 1 1-7 0 3.5 3.5 0 0 1 7 0zm-9 9a3.5 3.5 0 1 1-7 0 3.5 3.5 0 0 1 7 0zm5.5 3.5a3.5 3.5 0 1 0 0-7 3.5 3.5 0 0 0 0 7zm-9-11a1.5 1.5 0 1 1 0-3 1.5 1.5 0 0 1 0 3zm0 2a3.5 3.5 0 1 0 0-7 3.5 3.5 0 0 0 0 7z"/>
</svg>