<!--
  - Copyright (c) 2023 - All rights reserved.
  - Created by Curtis Poon for PROCTECH 4IT3/SEP 6IT3.
  - SoA Notice: I Curtis Poon, 400263978 certify that this material is my original work.
  - I certify that no other person's work has been used without due acknowledgement.
  - I have also not made my work available to anyone else without their due acknowledgement.
  -->

<svg xmlns="http://www.w3.org/2000/svg" width="16" height="16" fill="currentColor" class="bi bi-usb-mini-fill" viewBox="0 0 16 16">
  <path d="M3 3a1 1 0 0 0-1 1v1.293L.293 7A1 1 0 0 0 0 7.707V12a1 1 0 0 0 1 1h14a1 1 0 0 0 1-1V7.707A1 1 0 0 0 15.707 7L14 5.293V4a1 1 0 0 0-1-1H3Zm.5 5h9a.5.5 0 0 1 .5.5v1a.5.5 0 0 1-.5.5h-9a.5.5 0 0 1-.5-.5v-1a.5.5 0 0 1 .5-.5Z"/>
</svg>