<!--
  - Copyright (c) 2023 - All rights reserved.
  - Created by Curtis Poon for PROCTECH 4IT3/SEP 6IT3.
  - SoA Notice: I Curtis Poon, 400263978 certify that this material is my original work.
  - I certify that no other person's work has been used without due acknowledgement.
  - I have also not made my work available to anyone else without their due acknowledgement.
  -->

<svg xmlns="http://www.w3.org/2000/svg" width="16" height="16" fill="currentColor" class="bi bi-usb-micro-fill" viewBox="0 0 16 16">
  <path d="M2.707 4A1 1 0 0 0 2 4.293L.293 6A1 1 0 0 0 0 6.707V11a1 1 0 0 0 1 1h14a1 1 0 0 0 1-1V6.707A1 1 0 0 0 15.707 6L14 4.293A1 1 0 0 0 13.293 4H2.707ZM4.5 7h7a.5.5 0 0 1 .5.5v1a.5.5 0 0 1-.5.5h-7a.5.5 0 0 1-.5-.5v-1a.5.5 0 0 1 .5-.5Z"/>
</svg>