<!--
  - Copyright (c) 2023 - All rights reserved.
  - Created by Curtis Poon for PROCTECH 4IT3/SEP 6IT3.
  - SoA Notice: I Curtis Poon, 400263978 certify that this material is my original work.
  - I certify that no other person's work has been used without due acknowledgement.
  - I have also not made my work available to anyone else without their due acknowledgement.
  -->

<svg xmlns="http://www.w3.org/2000/svg" width="16" height="16" fill="currentColor" class="bi bi-usb-drive-fill" viewBox="0 0 16 16">
  <path d="M6 .5a.5.5 0 0 1 .5-.5h4a.5.5 0 0 1 .5.5v4H6v-4ZM7 1v1h1V1H7Zm2 0v1h1V1H9ZM5.5 5a.5.5 0 0 0-.5.5V15a1 1 0 0 0 1 1h5a1 1 0 0 0 1-1V5.5a.5.5 0 0 0-.5-.5h-6Z"/>
</svg>