<!--
  - Copyright (c) 2023 - All rights reserved.
  - Created by Curtis Poon for PROCTECH 4IT3/SEP 6IT3.
  - SoA Notice: I Curtis Poon, 400263978 certify that this material is my original work.
  - I certify that no other person's work has been used without due acknowledgement.
  - I have also not made my work available to anyone else without their due acknowledgement.
  -->

<svg xmlns="http://www.w3.org/2000/svg" width="16" height="16" fill="currentColor" class="bi bi-usb" viewBox="0 0 16 16">
  <path d="M2.25 7a.25.25 0 0 0-.25.25v1c0 .138.112.25.25.25h11.5a.25.25 0 0 0 .25-.25v-1a.25.25 0 0 0-.25-.25H2.25Z"/>
  <path d="M0 5.5A.5.5 0 0 1 .5 5h15a.5.5 0 0 1 .5.5v5a.5.5 0 0 1-.5.5H.5a.5.5 0 0 1-.5-.5v-5ZM1 10h14V6H1v4Z"/>
</svg>