<!--
  - Copyright (c) 2023 - All rights reserved.
  - Created by Curtis Poon for PROCTECH 4IT3/SEP 6IT3.
  - SoA Notice: I Curtis Poon, 400263978 certify that this material is my original work.
  - I certify that no other person's work has been used without due acknowledgement.
  - I have also not made my work available to anyone else without their due acknowledgement.
  -->

<svg xmlns="http://www.w3.org/2000/svg" width="16" height="16" fill="currentColor" class="bi bi-vinyl-fill" viewBox="0 0 16 16">
  <path d="M8 6a2 2 0 1 0 0 4 2 2 0 0 0 0-4zm0 3a1 1 0 1 1 0-2 1 1 0 0 1 0 2z"/>
  <path d="M16 8A8 8 0 1 1 0 8a8 8 0 0 1 16 0zM4 8a4 4 0 1 0 8 0 4 4 0 0 0-8 0z"/>
</svg>