<!--
  - Copyright (c) 2023 - All rights reserved.
  - Created by Curtis Poon for PROCTECH 4IT3/SEP 6IT3.
  - SoA Notice: I Curtis Poon, 400263978 certify that this material is my original work.
  - I certify that no other person's work has been used without due acknowledgement.
  - I have also not made my work available to anyone else without their due acknowledgement.
  -->

<svg xmlns="http://www.w3.org/2000/svg" width="16" height="16" fill="currentColor" class="bi bi-volume-off" viewBox="0 0 16 16">
  <path d="M10.717 3.55A.5.5 0 0 1 11 4v8a.5.5 0 0 1-.812.39L7.825 10.5H5.5A.5.5 0 0 1 5 10V6a.5.5 0 0 1 .5-.5h2.325l2.363-1.89a.5.5 0 0 1 .529-.06zM10 5.04 8.312 6.39A.5.5 0 0 1 8 6.5H6v3h2a.5.5 0 0 1 .312.11L10 10.96V5.04z"/>
</svg>