<!--
  - Copyright (c) 2023 - All rights reserved.
  - Created by Curtis Poon for PROCTECH 4IT3/SEP 6IT3.
  - SoA Notice: I Curtis Poon, 400263978 certify that this material is my original work.
  - I certify that no other person's work has been used without due acknowledgement.
  - I have also not made my work available to anyone else without their due acknowledgement.
  -->

<svg xmlns="http://www.w3.org/2000/svg" width="16" height="16" fill="currentColor" class="bi bi-watch" viewBox="0 0 16 16">
  <path d="M8.5 5a.5.5 0 0 0-1 0v2.5H6a.5.5 0 0 0 0 1h2a.5.5 0 0 0 .5-.5V5z"/>
  <path d="M5.667 16C4.747 16 4 15.254 4 14.333v-1.86A5.985 5.985 0 0 1 2 8c0-1.777.772-3.374 2-4.472V1.667C4 .747 4.746 0 5.667 0h4.666C11.253 0 12 .746 12 1.667v1.86a5.99 5.99 0 0 1 1.918 3.48.502.502 0 0 1 .582.493v1a.5.5 0 0 1-.582.493A5.99 5.99 0 0 1 12 12.473v1.86c0 .92-.746 1.667-1.667 1.667H5.667zM13 8A5 5 0 1 0 3 8a5 5 0 0 0 10 0z"/>
</svg>