<!--
  - Copyright (c) 2023 - All rights reserved.
  - Created by Curtis Poon for PROCTECH 4IT3/SEP 6IT3.
  - SoA Notice: I Curtis Poon, 400263978 certify that this material is my original work.
  - I certify that no other person's work has been used without due acknowledgement.
  - I have also not made my work available to anyone else without their due acknowledgement.
  -->

<svg xmlns="http://www.w3.org/2000/svg" width="16" height="16" fill="currentColor" class="bi bi-window" viewBox="0 0 16 16">
  <path d="M2.5 4a.5.5 0 1 0 0-1 .5.5 0 0 0 0 1zm2-.5a.5.5 0 1 1-1 0 .5.5 0 0 1 1 0zm1 .5a.5.5 0 1 0 0-1 .5.5 0 0 0 0 1z"/>
  <path d="M2 1a2 2 0 0 0-2 2v10a2 2 0 0 0 2 2h12a2 2 0 0 0 2-2V3a2 2 0 0 0-2-2H2zm13 2v2H1V3a1 1 0 0 1 1-1h12a1 1 0 0 1 1 1zM2 14a1 1 0 0 1-1-1V6h14v7a1 1 0 0 1-1 1H2z"/>
</svg>